<mxfile host="app.diagrams.net" agent="Mozilla/5.0 (Macintosh; Intel Mac OS X 10_15_7) AppleWebKit/537.36 (KHTML, like Gecko) Chrome/137.0.0.0 Safari/537.36" version="27.0.9">
  <diagram name="Page-1" id="QMRZXy_Fa4SiW-KNj1Yw">
    <mxGraphModel dx="1435" dy="906" grid="1" gridSize="10" guides="1" tooltips="1" connect="1" arrows="1" fold="1" page="1" pageScale="1" pageWidth="850" pageHeight="1100" math="0" shadow="0">
      <root>
        <mxCell id="0" />
        <mxCell id="1" parent="0" />
        <mxCell id="q0MprUQv03H-z0zO9nw7-2" value="" style="rounded=0;whiteSpace=wrap;html=1;strokeColor=#FF0000;strokeWidth=2;" vertex="1" parent="1">
          <mxGeometry x="285" y="626.5" width="175" height="305" as="geometry" />
        </mxCell>
        <mxCell id="q0MprUQv03H-z0zO9nw7-12" value="Retriever and Embedding service" style="rounded=1;whiteSpace=wrap;html=1;strokeColor=#FF0000;strokeWidth=2;" vertex="1" parent="1">
          <mxGeometry x="908" y="744" width="100" height="70" as="geometry" />
        </mxCell>
        <mxCell id="q0MprUQv03H-z0zO9nw7-13" value="" style="endArrow=none;dashed=1;html=1;rounded=0;strokeColor=#FF0000;strokeWidth=2;exitX=0.071;exitY=1.044;exitDx=0;exitDy=0;exitPerimeter=0;" edge="1" parent="1" source="q0MprUQv03H-z0zO9nw7-41">
          <mxGeometry width="50" height="50" relative="1" as="geometry">
            <mxPoint x="135" y="593" as="sourcePoint" />
            <mxPoint x="1280" y="593" as="targetPoint" />
          </mxGeometry>
        </mxCell>
        <mxCell id="q0MprUQv03H-z0zO9nw7-14" value="S3 Bucket" style="shape=cylinder3;whiteSpace=wrap;html=1;boundedLbl=1;backgroundOutline=1;size=15;strokeColor=#FF0000;strokeWidth=2;" vertex="1" parent="1">
          <mxGeometry x="327.5" y="659" width="87.5" height="80" as="geometry" />
        </mxCell>
        <mxCell id="q0MprUQv03H-z0zO9nw7-15" value="URL" style="ellipse;shape=cloud;whiteSpace=wrap;html=1;strokeColor=#FF0000;strokeWidth=2;" vertex="1" parent="1">
          <mxGeometry x="327.5" y="759" width="90" height="60" as="geometry" />
        </mxCell>
        <mxCell id="q0MprUQv03H-z0zO9nw7-19" value="OpenShift AI Pipelines" style="rounded=1;whiteSpace=wrap;html=1;strokeColor=#FF0000;strokeWidth=2;" vertex="1" parent="1">
          <mxGeometry x="573" y="639" width="120" height="60" as="geometry" />
        </mxCell>
        <mxCell id="q0MprUQv03H-z0zO9nw7-20" value="Python Script" style="rounded=1;whiteSpace=wrap;html=1;strokeColor=#FF0000;strokeWidth=2;" vertex="1" parent="1">
          <mxGeometry x="573" y="744" width="120" height="60" as="geometry" />
        </mxCell>
        <mxCell id="q0MprUQv03H-z0zO9nw7-21" value="Frontend UI or Retriever Listener" style="rounded=1;whiteSpace=wrap;html=1;strokeColor=#FF0000;strokeWidth=2;" vertex="1" parent="1">
          <mxGeometry x="573" y="854" width="120" height="60" as="geometry" />
        </mxCell>
        <mxCell id="q0MprUQv03H-z0zO9nw7-22" value="" style="endArrow=classic;html=1;rounded=0;entryX=0;entryY=0.5;entryDx=0;entryDy=0;exitX=1;exitY=0.5;exitDx=0;exitDy=0;strokeColor=#FF0000;strokeWidth=2;" edge="1" parent="1" source="q0MprUQv03H-z0zO9nw7-19" target="q0MprUQv03H-z0zO9nw7-12">
          <mxGeometry width="50" height="50" relative="1" as="geometry">
            <mxPoint x="653" y="689" as="sourcePoint" />
            <mxPoint x="703" y="639" as="targetPoint" />
          </mxGeometry>
        </mxCell>
        <mxCell id="q0MprUQv03H-z0zO9nw7-23" value="" style="endArrow=classic;html=1;rounded=0;exitX=1;exitY=0.5;exitDx=0;exitDy=0;entryX=0;entryY=0.5;entryDx=0;entryDy=0;strokeColor=#FF0000;strokeWidth=2;" edge="1" parent="1" source="q0MprUQv03H-z0zO9nw7-20" target="q0MprUQv03H-z0zO9nw7-12">
          <mxGeometry width="50" height="50" relative="1" as="geometry">
            <mxPoint x="613" y="644" as="sourcePoint" />
            <mxPoint x="663" y="594" as="targetPoint" />
          </mxGeometry>
        </mxCell>
        <mxCell id="q0MprUQv03H-z0zO9nw7-24" value="" style="endArrow=classic;html=1;rounded=0;exitX=1;exitY=0.5;exitDx=0;exitDy=0;entryX=0;entryY=0.5;entryDx=0;entryDy=0;strokeColor=#FF0000;strokeWidth=2;" edge="1" parent="1" source="q0MprUQv03H-z0zO9nw7-21" target="q0MprUQv03H-z0zO9nw7-12">
          <mxGeometry width="50" height="50" relative="1" as="geometry">
            <mxPoint x="613" y="644" as="sourcePoint" />
            <mxPoint x="663" y="594" as="targetPoint" />
          </mxGeometry>
        </mxCell>
        <mxCell id="q0MprUQv03H-z0zO9nw7-25" value="" style="shape=flexArrow;endArrow=classic;html=1;rounded=0;strokeColor=#FF0000;strokeWidth=2;" edge="1" parent="1">
          <mxGeometry width="50" height="50" relative="1" as="geometry">
            <mxPoint x="475" y="774" as="sourcePoint" />
            <mxPoint x="555" y="774" as="targetPoint" />
          </mxGeometry>
        </mxCell>
        <mxCell id="q0MprUQv03H-z0zO9nw7-26" value="" style="endArrow=classic;html=1;rounded=0;exitX=0.5;exitY=0;exitDx=0;exitDy=0;strokeColor=#FF0000;strokeWidth=2;" edge="1" parent="1" source="q0MprUQv03H-z0zO9nw7-12">
          <mxGeometry width="50" height="50" relative="1" as="geometry">
            <mxPoint x="960" y="694" as="sourcePoint" />
            <mxPoint x="958" y="510" as="targetPoint" />
          </mxGeometry>
        </mxCell>
        <mxCell id="q0MprUQv03H-z0zO9nw7-37" value="" style="shape=flexArrow;endArrow=classic;html=1;rounded=0;strokeColor=#FF0000;strokeWidth=2;" edge="1" parent="1">
          <mxGeometry width="50" height="50" relative="1" as="geometry">
            <mxPoint x="475" y="668.5" as="sourcePoint" />
            <mxPoint x="555" y="668.5" as="targetPoint" />
          </mxGeometry>
        </mxCell>
        <mxCell id="q0MprUQv03H-z0zO9nw7-38" value="" style="shape=flexArrow;endArrow=classic;html=1;rounded=0;strokeColor=#FF0000;strokeWidth=2;" edge="1" parent="1">
          <mxGeometry width="50" height="50" relative="1" as="geometry">
            <mxPoint x="475" y="883.5" as="sourcePoint" />
            <mxPoint x="555" y="883.5" as="targetPoint" />
          </mxGeometry>
        </mxCell>
        <mxCell id="q0MprUQv03H-z0zO9nw7-40" value="Ingestion Pipeline" style="text;html=1;align=center;verticalAlign=middle;whiteSpace=wrap;rounded=0;fontSize=16;" vertex="1" parent="1">
          <mxGeometry x="102.5" y="594" width="160" height="45" as="geometry" />
        </mxCell>
        <mxCell id="q0MprUQv03H-z0zO9nw7-41" value="AI Virtual Assistant&amp;nbsp;" style="text;html=1;align=center;verticalAlign=middle;whiteSpace=wrap;rounded=0;fontSize=16;" vertex="1" parent="1">
          <mxGeometry x="117" y="544" width="140" height="45" as="geometry" />
        </mxCell>
        <mxCell id="q0MprUQv03H-z0zO9nw7-43" value="Docling libraries" style="text;html=1;align=center;verticalAlign=middle;whiteSpace=wrap;rounded=0;" vertex="1" parent="1">
          <mxGeometry x="1018" y="747" width="60" height="64" as="geometry" />
        </mxCell>
        <UserObject label="&lt;b style=&quot;font-weight:normal;&quot; id=&quot;docs-internal-guid-5da1a9de-7fff-b338-ff25-d51fd58c702f&quot;&gt;&lt;img width=&quot;91px;&quot; height=&quot;91px;&quot; src=&quot;https://lh7-rt.googleusercontent.com/slidesz/AGV_vUdqgIiIbiTNcX5pLD8x4p1xu_vXWqxrU6Nr2GnXk3dm8osGfeknHmAA_nJkQM1xqeiSwUVfu5iQOQNUaoZqq0ShOZ7njJqYhFPAPXzfNJO3te8g_ZYb6bmJoGGuy99GAc04C3x9LAJowa-brD2Zs-0Nj0ZCfjB2=s2048?key=R2wDPdasFRhY1Y3YSYM4iw&quot;&gt;&lt;/b&gt;" link="&lt;b style=&quot;font-weight:normal;&quot; id=&quot;docs-internal-guid-5da1a9de-7fff-b338-ff25-d51fd58c702f&quot;&gt;&lt;img width=&quot;91px;&quot; height=&quot;91px;&quot; src=&quot;https://lh7-rt.googleusercontent.com/slidesz/AGV_vUdqgIiIbiTNcX5pLD8x4p1xu_vXWqxrU6Nr2GnXk3dm8osGfeknHmAA_nJkQM1xqeiSwUVfu5iQOQNUaoZqq0ShOZ7njJqYhFPAPXzfNJO3te8g_ZYb6bmJoGGuy99GAc04C3x9LAJowa-brD2Zs-0Nj0ZCfjB2=s2048?key=R2wDPdasFRhY1Y3YSYM4iw&quot;&gt;&lt;/b&gt;" id="q0MprUQv03H-z0zO9nw7-45">
          <mxCell style="text;whiteSpace=wrap;html=1;" vertex="1" parent="1">
            <mxGeometry x="135" y="125" width="85" height="90" as="geometry" />
          </mxCell>
        </UserObject>
        <mxCell id="q0MprUQv03H-z0zO9nw7-46" value="Admin UI" style="whiteSpace=wrap;html=1;aspect=fixed;strokeColor=#FF0000;strokeWidth=2;" vertex="1" parent="1">
          <mxGeometry x="300" y="135" width="80" height="80" as="geometry" />
        </mxCell>
        <mxCell id="q0MprUQv03H-z0zO9nw7-47" value="Authenticated&amp;nbsp;&lt;br&gt;Admin" style="text;html=1;align=center;verticalAlign=middle;whiteSpace=wrap;rounded=0;container=0;strokeColor=none;strokeWidth=2;" vertex="1" parent="1">
          <mxGeometry x="155" y="225" width="60" height="30" as="geometry" />
        </mxCell>
        <mxCell id="q0MprUQv03H-z0zO9nw7-48" value="OpenShift / Keycloak&lt;br&gt;Identity Broker" style="rounded=1;whiteSpace=wrap;html=1;strokeColor=#FF0000;strokeWidth=2;" vertex="1" parent="1">
          <mxGeometry x="140" y="300" width="100" height="75" as="geometry" />
        </mxCell>
        <mxCell id="q0MprUQv03H-z0zO9nw7-50" value="" style="endArrow=classic;html=1;rounded=0;strokeColor=#FF0000;strokeWidth=2;startArrow=classic;startFill=1;" edge="1" parent="1">
          <mxGeometry width="50" height="50" relative="1" as="geometry">
            <mxPoint x="185" y="300" as="sourcePoint" />
            <mxPoint x="184.5" y="260" as="targetPoint" />
          </mxGeometry>
        </mxCell>
        <mxCell id="q0MprUQv03H-z0zO9nw7-51" value="" style="endArrow=classic;html=1;rounded=0;exitX=0.963;exitY=0.613;exitDx=0;exitDy=0;exitPerimeter=0;entryX=0;entryY=0.5;entryDx=0;entryDy=0;strokeColor=#FF0000;strokeWidth=2;" edge="1" parent="1">
          <mxGeometry width="50" height="50" relative="1" as="geometry">
            <mxPoint x="205" y="174.5" as="sourcePoint" />
            <mxPoint x="285" y="174.5" as="targetPoint" />
          </mxGeometry>
        </mxCell>
        <mxCell id="q0MprUQv03H-z0zO9nw7-52" value="Llama Stack APIs" style="rounded=0;whiteSpace=wrap;html=1;strokeColor=#FF0000;strokeWidth=2;" vertex="1" parent="1">
          <mxGeometry x="749" y="125" width="90" height="375" as="geometry" />
        </mxCell>
        <mxCell id="q0MprUQv03H-z0zO9nw7-53" value="MCP Servers" style="rounded=1;whiteSpace=wrap;html=1;strokeColor=#FF0000;strokeWidth=2;" vertex="1" parent="1">
          <mxGeometry x="897.75" y="120" width="100" height="75" as="geometry" />
        </mxCell>
        <mxCell id="q0MprUQv03H-z0zO9nw7-55" value="Admin Backend" style="whiteSpace=wrap;html=1;aspect=fixed;strokeColor=#FF0000;strokeWidth=2;" vertex="1" parent="1">
          <mxGeometry x="444" y="135" width="80" height="80" as="geometry" />
        </mxCell>
        <mxCell id="q0MprUQv03H-z0zO9nw7-58" value="Model Servers/&lt;br&gt;Guard Rails" style="rounded=1;whiteSpace=wrap;html=1;strokeColor=#FF0000;strokeWidth=2;" vertex="1" parent="1">
          <mxGeometry x="897.75" y="275" width="100" height="75" as="geometry" />
        </mxCell>
        <mxCell id="q0MprUQv03H-z0zO9nw7-60" value="Vector DBs" style="shape=cylinder3;whiteSpace=wrap;html=1;boundedLbl=1;backgroundOutline=1;size=15;strokeColor=#FF0000;strokeWidth=2;" vertex="1" parent="1">
          <mxGeometry x="904" y="420" width="87.5" height="80" as="geometry" />
        </mxCell>
        <mxCell id="q0MprUQv03H-z0zO9nw7-61" value="" style="endArrow=classic;html=1;rounded=0;strokeColor=#FF0000;strokeWidth=2;" edge="1" parent="1">
          <mxGeometry width="50" height="50" relative="1" as="geometry">
            <mxPoint x="380" y="174.5" as="sourcePoint" />
            <mxPoint x="440" y="174.5" as="targetPoint" />
          </mxGeometry>
        </mxCell>
        <mxCell id="q0MprUQv03H-z0zO9nw7-62" value="" style="endArrow=classic;html=1;rounded=0;strokeColor=#FF0000;strokeWidth=2;" edge="1" parent="1">
          <mxGeometry width="50" height="50" relative="1" as="geometry">
            <mxPoint x="524" y="174.5" as="sourcePoint" />
            <mxPoint x="584" y="174.5" as="targetPoint" />
          </mxGeometry>
        </mxCell>
        <mxCell id="q0MprUQv03H-z0zO9nw7-63" value="" style="rounded=0;whiteSpace=wrap;html=1;dashed=1;strokeColor=#FF0000;strokeWidth=2;" vertex="1" parent="1">
          <mxGeometry x="1065" y="67" width="100" height="175" as="geometry" />
        </mxCell>
        <mxCell id="q0MprUQv03H-z0zO9nw7-65" value="OpenAPI" style="rounded=0;whiteSpace=wrap;html=1;strokeColor=#FF0000;strokeWidth=2;" vertex="1" parent="1">
          <mxGeometry x="1070" y="72" width="90" height="50" as="geometry" />
        </mxCell>
        <mxCell id="q0MprUQv03H-z0zO9nw7-66" value="Web Search" style="rounded=0;whiteSpace=wrap;html=1;strokeColor=#FF0000;strokeWidth=2;" vertex="1" parent="1">
          <mxGeometry x="1070" y="129.5" width="90" height="50" as="geometry" />
        </mxCell>
        <mxCell id="q0MprUQv03H-z0zO9nw7-67" value="SQL" style="rounded=0;whiteSpace=wrap;html=1;strokeColor=#FF0000;strokeWidth=2;" vertex="1" parent="1">
          <mxGeometry x="1070" y="188" width="90" height="50" as="geometry" />
        </mxCell>
        <mxCell id="q0MprUQv03H-z0zO9nw7-68" value="RDBMS" style="shape=cylinder3;whiteSpace=wrap;html=1;boundedLbl=1;backgroundOutline=1;size=15;strokeColor=#FF0000;strokeWidth=2;" vertex="1" parent="1">
          <mxGeometry x="1209" y="188" width="76" height="54" as="geometry" />
        </mxCell>
        <mxCell id="q0MprUQv03H-z0zO9nw7-69" value="" style="endArrow=classic;html=1;rounded=0;strokeColor=#FF0000;strokeWidth=2;endFill=1;startArrow=classic;startFill=1;" edge="1" parent="1">
          <mxGeometry width="50" height="50" relative="1" as="geometry">
            <mxPoint x="1165" y="217" as="sourcePoint" />
            <mxPoint x="1205" y="217" as="targetPoint" />
          </mxGeometry>
        </mxCell>
        <mxCell id="q0MprUQv03H-z0zO9nw7-71" value="" style="endArrow=classic;html=1;rounded=0;strokeColor=#FF0000;strokeWidth=2;endFill=1;startArrow=classic;startFill=1;" edge="1" parent="1">
          <mxGeometry width="50" height="50" relative="1" as="geometry">
            <mxPoint x="842" y="165" as="sourcePoint" />
            <mxPoint x="892" y="165" as="targetPoint" />
            <Array as="points">
              <mxPoint x="842" y="165" />
            </Array>
          </mxGeometry>
        </mxCell>
        <mxCell id="q0MprUQv03H-z0zO9nw7-74" value="" style="endArrow=classic;html=1;rounded=0;strokeColor=#FF0000;strokeWidth=2;endFill=1;startArrow=classic;startFill=1;" edge="1" parent="1">
          <mxGeometry width="50" height="50" relative="1" as="geometry">
            <mxPoint x="842" y="317" as="sourcePoint" />
            <mxPoint x="892" y="317" as="targetPoint" />
            <Array as="points">
              <mxPoint x="842" y="317" />
            </Array>
          </mxGeometry>
        </mxCell>
        <mxCell id="q0MprUQv03H-z0zO9nw7-75" value="" style="endArrow=classic;html=1;rounded=0;strokeColor=#FF0000;strokeWidth=2;endFill=1;startArrow=classic;startFill=1;" edge="1" parent="1">
          <mxGeometry width="50" height="50" relative="1" as="geometry">
            <mxPoint x="847" y="458" as="sourcePoint" />
            <mxPoint x="897" y="458" as="targetPoint" />
            <Array as="points">
              <mxPoint x="847" y="458" />
            </Array>
          </mxGeometry>
        </mxCell>
        <mxCell id="q0MprUQv03H-z0zO9nw7-76" value="Internet" style="rounded=0;whiteSpace=wrap;html=1;strokeColor=#FF0000;strokeWidth=2;" vertex="1" parent="1">
          <mxGeometry x="1205" y="130.5" width="80" height="50" as="geometry" />
        </mxCell>
        <mxCell id="q0MprUQv03H-z0zO9nw7-77" value="openapi.json/&lt;div&gt;RESTful service&lt;/div&gt;" style="rounded=0;whiteSpace=wrap;html=1;strokeColor=#FF0000;strokeWidth=2;" vertex="1" parent="1">
          <mxGeometry x="1206.5" y="69" width="78.5" height="50" as="geometry" />
        </mxCell>
        <mxCell id="q0MprUQv03H-z0zO9nw7-78" value="" style="endArrow=classic;html=1;rounded=0;strokeColor=#FF0000;strokeWidth=2;endFill=1;startArrow=classic;startFill=1;" edge="1" parent="1">
          <mxGeometry width="50" height="50" relative="1" as="geometry">
            <mxPoint x="1165" y="152" as="sourcePoint" />
            <mxPoint x="1205" y="152" as="targetPoint" />
          </mxGeometry>
        </mxCell>
        <mxCell id="q0MprUQv03H-z0zO9nw7-79" value="" style="endArrow=classic;html=1;rounded=0;strokeColor=#FF0000;strokeWidth=2;endFill=1;startArrow=classic;startFill=1;" edge="1" parent="1">
          <mxGeometry width="50" height="50" relative="1" as="geometry">
            <mxPoint x="1166" y="97" as="sourcePoint" />
            <mxPoint x="1206" y="97" as="targetPoint" />
          </mxGeometry>
        </mxCell>
        <mxCell id="q0MprUQv03H-z0zO9nw7-80" value="" style="endArrow=classic;html=1;rounded=0;strokeColor=#FF0000;strokeWidth=2;endFill=1;startArrow=classic;startFill=1;" edge="1" parent="1">
          <mxGeometry width="50" height="50" relative="1" as="geometry">
            <mxPoint x="1008" y="160" as="sourcePoint" />
            <mxPoint x="1058" y="160" as="targetPoint" />
            <Array as="points">
              <mxPoint x="1008" y="160" />
            </Array>
          </mxGeometry>
        </mxCell>
        <mxCell id="q0MprUQv03H-z0zO9nw7-81" value="Model Server&lt;br&gt;vLLM&lt;br&gt;RHOAI&lt;br&gt;Ollama" style="rounded=0;whiteSpace=wrap;html=1;strokeColor=#FF0000;strokeWidth=2;" vertex="1" parent="1">
          <mxGeometry x="1059" y="275" width="90" height="120" as="geometry" />
        </mxCell>
        <mxCell id="q0MprUQv03H-z0zO9nw7-82" value="" style="endArrow=classic;html=1;rounded=0;strokeColor=#FF0000;strokeWidth=2;endFill=1;startArrow=classic;startFill=1;" edge="1" parent="1">
          <mxGeometry width="50" height="50" relative="1" as="geometry">
            <mxPoint x="1005" y="315" as="sourcePoint" />
            <mxPoint x="1055" y="315" as="targetPoint" />
            <Array as="points">
              <mxPoint x="1005" y="315" />
            </Array>
          </mxGeometry>
        </mxCell>
        <UserObject label="&lt;b style=&quot;font-weight:normal;&quot; id=&quot;docs-internal-guid-5da1a9de-7fff-b338-ff25-d51fd58c702f&quot;&gt;&lt;img width=&quot;91px;&quot; height=&quot;91px;&quot; src=&quot;https://lh7-rt.googleusercontent.com/slidesz/AGV_vUdqgIiIbiTNcX5pLD8x4p1xu_vXWqxrU6Nr2GnXk3dm8osGfeknHmAA_nJkQM1xqeiSwUVfu5iQOQNUaoZqq0ShOZ7njJqYhFPAPXzfNJO3te8g_ZYb6bmJoGGuy99GAc04C3x9LAJowa-brD2Zs-0Nj0ZCfjB2=s2048?key=R2wDPdasFRhY1Y3YSYM4iw&quot;&gt;&lt;/b&gt;" link="&lt;b style=&quot;font-weight:normal;&quot; id=&quot;docs-internal-guid-5da1a9de-7fff-b338-ff25-d51fd58c702f&quot;&gt;&lt;img width=&quot;91px;&quot; height=&quot;91px;&quot; src=&quot;https://lh7-rt.googleusercontent.com/slidesz/AGV_vUdqgIiIbiTNcX5pLD8x4p1xu_vXWqxrU6Nr2GnXk3dm8osGfeknHmAA_nJkQM1xqeiSwUVfu5iQOQNUaoZqq0ShOZ7njJqYhFPAPXzfNJO3te8g_ZYb6bmJoGGuy99GAc04C3x9LAJowa-brD2Zs-0Nj0ZCfjB2=s2048?key=R2wDPdasFRhY1Y3YSYM4iw&quot;&gt;&lt;/b&gt;" id="q0MprUQv03H-z0zO9nw7-83">
          <mxCell style="text;whiteSpace=wrap;html=1;" vertex="1" parent="1">
            <mxGeometry x="140" y="402" width="85" height="90" as="geometry" />
          </mxCell>
        </UserObject>
        <mxCell id="q0MprUQv03H-z0zO9nw7-84" value="Create Virtual Agent&lt;br&gt;(MCP Servers,&lt;br&gt;Model Servers,&lt;br&gt;Knowledge Bases)" style="rounded=0;whiteSpace=wrap;html=1;strokeColor=#FF0000;strokeWidth=2;" vertex="1" parent="1">
          <mxGeometry x="584" y="135" width="105" height="85" as="geometry" />
        </mxCell>
        <mxCell id="q0MprUQv03H-z0zO9nw7-86" value="" style="endArrow=classic;html=1;rounded=0;strokeColor=#FF0000;strokeWidth=2;startArrow=classic;startFill=1;" edge="1" parent="1">
          <mxGeometry width="50" height="50" relative="1" as="geometry">
            <mxPoint x="690" y="180" as="sourcePoint" />
            <mxPoint x="750" y="180" as="targetPoint" />
          </mxGeometry>
        </mxCell>
        <mxCell id="q0MprUQv03H-z0zO9nw7-89" value="Authenticated&amp;nbsp;&lt;br&gt;User" style="text;html=1;align=center;verticalAlign=middle;whiteSpace=wrap;rounded=0;container=0;strokeColor=none;strokeWidth=2;" vertex="1" parent="1">
          <mxGeometry x="160" y="500" width="60" height="30" as="geometry" />
        </mxCell>
        <mxCell id="q0MprUQv03H-z0zO9nw7-90" value="" style="endArrow=classic;html=1;rounded=0;strokeColor=#FF0000;strokeWidth=2;startArrow=classic;startFill=1;" edge="1" parent="1">
          <mxGeometry width="50" height="50" relative="1" as="geometry">
            <mxPoint x="187" y="415" as="sourcePoint" />
            <mxPoint x="186.5" y="375" as="targetPoint" />
          </mxGeometry>
        </mxCell>
        <mxCell id="q0MprUQv03H-z0zO9nw7-91" value="" style="shape=image;verticalLabelPosition=bottom;labelBackgroundColor=default;verticalAlign=top;aspect=fixed;imageAspect=0;image=data:image/png,iVBORw0KGgoAAAANSUhEUgAAAjAAAAIwCAYAAACY8VFvAAAAAXNSR0IArs4c6QAAAFBlWElmTU0AKgAAAAgAAgESAAMAAAABAAEAAIdpAAQAAAABAAAAJgAAAAAAA6ABAAMAAAABAAEAAKACAAQAAAABAAACMKADAAQAAAABAAACMAAAAACB9oiaAAACMmlUWHRYTUw6Y29tLmFkb2JlLnhtcAAAAAAAPHg6eG1wbWV0YSB4bWxuczp4PSJhZG9iZTpuczptZXRhLyIgeDp4bXB0az0iWE1QIENvcmUgNi4wLjAiPgogICA8cmRmOlJERiB4bWxuczpyZGY9Imh0dHA6Ly93d3cudzMub3JnLzE5OTkvMDIvMjItcmRmLXN5bnRheC1ucyMiPgogICAgICA8cmRmOkRlc2NyaXB0aW9uIHJkZjphYm91dD0iIgogICAgICAgICAgICB4bWxuczpleGlmPSJodHRwOi8vbnMuYWRvYmUuY29tL2V4aWYvMS4wLyIKICAgICAgICAgICAgeG1sbnM6dGlmZj0iaHR0cDovL25zLmFkb2JlLmNvbS90aWZmLzEuMC8iPgogICAgICAgICA8ZXhpZjpQaXhlbFlEaW1lbnNpb24+NTYwPC9leGlmOlBpeGVsWURpbWVuc2lvbj4KICAgICAgICAgPGV4aWY6Q29sb3JTcGFjZT4xPC9leGlmOkNvbG9yU3BhY2U+CiAgICAgICAgIDxleGlmOlBpeGVsWERpbWVuc2lvbj41NjA8L2V4aWY6UGl4ZWxYRGltZW5zaW9uPgogICAgICAgICA8dGlmZjpPcmllbnRhdGlvbj4xPC90aWZmOk9yaWVudGF0aW9uPgogICAgICA8L3JkZjpEZXNjcmlwdGlvbj4KICAgPC9yZGY6UkRGPgo8L3g6eG1wbWV0YT4K7gRgKgAAQABJREFUeAHt3QncDdX/wPGvbD8VWv4tSBTRDy2yJCSUNUvWpFTa0KaN9oU2bYqUVqXFHtmyC3ksWQuFiEJFiy3Z+Z9zf+F5HneZe+/MvefMfM7r9XDvzJkz57zP3LnfO8uZHAdVEhICCCCAAAIIIGCRwDEW1ZWqIoAAAggggAACIQECGDYEBBBAAAEEELBOgADGui6jwggggAACCCBAAMM2gAACCCCAAALWCRDAWNdlVBgBBBBAAAEECGDYBhBAAAEEEEDAOgECGOu6jAojgAACCCCAAAEM2wACCCCAAAIIWCdAAGNdl1FhBBBAAAEEECCAYRtAAAEEEEAAAesECGCs6zIqjAACCCCAAAIEMGwDCCCAAAIIIGCdAAGMdV1GhRFAAAEEEECAAIZtAAEEEEAAAQSsEyCAsa7LqDACCCCAAAIIEMCwDSCAAAIIIICAdQIEMNZ1GRVGAAEEEEAAAQIYtgEEEEAAAQQQsE6AAMa6LqPCCCCAAAIIIEAAwzaAAAIIIIAAAtYJEMBY12VUGAEEEEAAAQQIYNgGEEAAAQQQQMA6AQIY67qMCiOAAAIIIIAAAQzbAAIIIIAAAghYJ0AAY12XUWEEEEAAAQQQIIBhG0AAAQQQQAAB6wQIYKzrMiqMAAIIIIAAAgQwbAMIIIAAAgggYJ0AAYx1XUaFEUAAAQQQQIAAhm0AAQQQQAABBKwTIICxrsuoMAIIIIAAAggQwLANIIAAAggggIB1AgQw1nUZFUYAAQQQQAABAhi2AQQQQAABBBCwToAAxrouo8IIIIAAAgggQADDNoAAAggggAAC1gkQwFjXZVQYAQQQQAABBAhg2AYQQAABBBBAwDoBAhjruowKI4AAAggggAABDNsAAggggAACCFgnQABjXZdRYQQQQAABBBAggGEbQAABBBBAAAHrBAhgrOsyKowAAggggAACBDBsAwgggAACCCBgnQABjHVdRoURQAABBBBAgACGbQABBBBAAAEErBMggLGuy6gwAggggAACCBDAsA0ggAACCCCAgHUCBDDWdRkVRgABBBBAAAECGLYBBBBAAAEEELBOgADGui6jwggggAACCCBAAMM2gAACCCCAAALWCRDAWNdlVBgBBBBAAAEECGDYBhBAAAEEEEDAOgECGOu6jAojgAACCCCAAAEM2wACCCCAAAIIWCdAAGNdl1FhBBBAAAEEECCAYRtAAAEEEEAAAesECGCs6zIqjAACCCCAAAIEMGwDCCCAAAIIIGCdAAGMdV1GhRFAAAEEEECAAIZtAAEEEEAAAQSsEyCAsa7LqDACCCCAAAIIEMCwDSCAAAIIIICAdQIEMNZ1GRVGAAEEEEAAAQIYtgEEEEAAAQQQsE6AAMa6LqPCCCCAAAIIIEAAwzaAAAIIIIAAAtYJEMBY12VUGAEEEEAAAQQIYNgGEEAAAQQQQMA6AQIY67qMCiOAAAIIIIAAAQzbAAIIIIAAAghYJ0AAY12XUWEEEEAAAQQQyAUBAgggoAUOHjwoW7dskd9///3w3+bNm2Xr1q2h6Vu3bQu93q7+37lzZ+jvH/V/xuzZCQFeUrmy5MuXL/T3H/V//uOPlwIFC0rBTH8nnHii/N///Z+ccsopob+TTz5ZcuVit5UQOAsh4DOBHGqnddBnbaI5CCAQRkAHHWvXrg39bVi/Xn7ZsEE2/PKL6Ndjxo0Ls4S5k+rUri2FixSRIpn+zixWTM466yw5UQU9JAQQ8L8AAYz/+5gWBkhA/x5ZrwKSlStWyAr198MPP8iaNWvk81GjAqQgUq9OnVAwU7JkSSldurSUUn9nn3225M6dO1AONBYBPwsQwPi5d2mbrwX++ecfWbZsmSxdskS+/fZb+f7772X8xIm+bnOyjatRvbqce+65ct5550k59Xf++eeLPi1FQgAB+wQIYOzrM2ocQIG9e/fKdypYWbBgQehv8eLFCV97EkC+mE2+/rrrpEKFCqG/C8uXl+PV9TgkBBAwW4AAxuz+oXYBFdAXzn49d67MnjVL5s+fL6PGjg2oRHqaXatGDalYqZJUqVJFqlatKoUKF05PRVgrAghEFCCAiUjDDARSJ7BN3dmTkZEhs9SfDlomf/ll6lbOmmIKXFyxolyiAhkdzFyqgptChQrFXIYMCCDgrQABjLe+lI5AWIH9+/fLwoULZfq0aaG/0V98ETYfE80U0NfS1KxZM/SnAxt9OzgJAQRSK0AAk1pv1hZggS1qTJWpU6fKRHWh7VvvvBNgCf81/ZrWraVuvXpSp25dOeOMM/zXQFqEgIECBDAGdgpV8o/Azz//LGPHjJEJEyYE7lZm//RifC3R18/oYKZRo0ZynrrLiYQAAt4IEMB440qpARZYvXp1KGgZPXq0TJoyJcASNL2yurNJBzKNmjSR8uruphw5coCCAAIuCRDAuARJMcEW0KPajhgxQoZ/9plMUde1kBDILlBBBTDNmjWT5i1aSJkyZbLP5j0CCMQpQAATJxjZETgkoJ8bNEqNcDt8+HAZMXLkocn8j0BMgZqXXiotWraU5s2bSxGumYnpRQYEwgkQwIRTYRoCEQQOHDggX331lQwaOFD6vv12hFxMRsC5wNUqkLmmbVtp0LCh5M2b1/mC5EQg4AIEMAHfAGi+MwH9wMMBAwbIoEGDZMGiRc4WIhcCcQo8/OCDcq0aFbhcuXJxLkl2BIInQAATvD6nxQ4F9IMRv1QDyn34wQfy0SefOFyKbAgkL9CoQQO5oX17adq0qeTJkyf5AikBAR8KEMD4sFNpUnIC+tqWT1TA8lH//jJXDeNPQiCdAt2fekra33STFC1aNJ3VYN0IGCdAAGNcl1ChdAmsXrVK3lUDzPV46aV0VYH1IhBR4BZ1ROa2jh2lcuXKEfMwA4EgCRDABKm3aWtYAX1R7lt9+8qn6sJcEgKmC9RXo/126NBBmqjTSzlz5jS9utQPAc8ECGA8o6VgkwX03URfqOcPvd67t0yYNMnkqlI3BMIK6EHybr/zTrnmmmu4eymsEBP9LkAA4/cepn1ZBPbu3SvDhg6VPn36SMbs2Vnm8QYBWwV6v/aa3KhOMRUoUMDWJlBvBOIWIICJm4wFbBTQgYseu6WX2tHP5zZoG7uQOjsQeEVdv3XrbbcRyDiwIov9AgQw9vchLYgiQOASBYdZvhUgkPFt19KwTAIEMJkweOkfAX2Niz5V9OILL3DExT/dSkviFHi9V6/QEZn//Oc/cS5JdgTMFyCAMb+PqGGcAuPHj5fnn31Wps+cGeeSZEfAnwL9P/xQrr32WsmVK5c/G0irAilwTCBbTaN9KTB37lxppJ4nU1+NYkrw4ssuplEJCtxw441yabVqMlo9fJSEgF8EOALjl54McDt++uknebp7d3mvX78AK9B0BJwJNFZBfrenn5aLLrrI2QLkQsBQAQIYQzuGasUW2LZtm7zWs6c80a1b7MzkQACBLAK3q1F9H330USlyxhlZpvMGAVsECGBs6SnqeVhAP2RxoHoydFv11F4SAggkJ6DvWLrzrrsYDC85RpZOgwDXwKQBnVUmLvDN4sXSUF3jQvCSuCFLIpBZ4P4uXULXx0xQF7+TELBJgADGpt4KcF23bN4sD9x/v1xQvryMmzAhwBI0HQH3Bb5esEDqqR8G17ZtK/qaMhICNghwCsmGXgp4HT8bNkxatGoVcAWaj0DqBPT4MZ1uv53brlNHzpoSEOAITAJoLJIagbVr18rVKnAheEmNN2tB4JDAXZ07S53LL5cF6sgMCQFTBTgCY2rPBLhe+/fvl7f69pU71IWFJAQQSK/AIw89JI89/rgce+yx6a0Ia0cgmwABTDYQ3qZXYOWKFdJZ/frjOpf09gNrRyCzQOUKFaTnq69K9UsvzTyZ1wikVYBTSGnlZ+WHBPbt2ye91Xn3UueeS/ByCIX/ETBEQF/kW71GDXlQ3bH0999/G1IrqhF0AY7ABH0LMKD9a9askds7dSJwMaAvqAICsQQqqRF833zrLalUqVKsrMxHwFMBAhhPeSk8lsCQwYOldZs2sbIxHwEEDBN4+cUX5d777pOcOXMaVjOqExQBTiEFpacNa+fWrVulw223EbwY1i9UBwGnAg907SpXNWki69atc7oI+RBwVYAjMK5yUpgTgblz5sjtaoyJBYsWOclOHgQQMFxguBqrqXmLFobXkur5TYAjMH7rUYPboy/UffGFF+TiSy4heDG4n6gaAvEKNG/ZUu664w4u8I0XjvxJCXAEJik+FnYqoIcn10+/HcvzVpySkQ8B6wQurlgxdIFvBXXbNQkBrwUIYLwWpnzRD4nTz1khIYBAMATeffttuVVd40ZCwEsBTiF5qRvwsg8cOCAvqTsVCF4CviHQ/MAJ3Nqhg9yhrnPbtWtX4NpOg1MnwBGY1FkHak36LiM9tsunAwcGqt00FgEEjghcXrOmfNC/v5x55plHJvIKAZcECGBcgqSYIwLff/+9tL/hBpkzb96RibxCAIHACnw5darUqlUrsO2n4d4IcArJG9fAljry88/lv2XKELwEdgug4QgcLVCrdm3p9dprcvDgwaNnMgWBBAUIYBKEY7GsAvoJ0t2eekqaNmuWdQbvEEAAASXQ+d575eb27bnVmq3BNQFOIblGGdyCtm3bFtoxDR0+PLgItBwBBBwJXFqtmnw6YADXxTjSIlM0AQKYaDrMiymwYf16aXvNNTJ95syYecmAAAIIHBJYpJ5wXV49GJKEQKICBDCJyrGcLPn2WznvgguQQAABBBISGD9unNSvXz+hZVkIAa6BYRtISGDK5MkELwnJsRACCBwSqK8GuOz3/vuH3vI/AnEJEMDExUVmLfCRGtfh8jp1wEAAAQSSFrjpllvkqSefFD3wJQmBeAQIYOLRCnhefQvks888I9ffeGPAJWg+Agi4KfBU9+5ymwpkdu/e7WaxlOVzAa6B8XkHu9W8PXv2yN133SVvvfOOW0VSDgIIIJBFoJE6pfTRJ5/ISSedlGU6bxAIJ0AAE06FaVkEdu7cKTdef70MHjYsy3TeIIAAAm4L6Nush6p9zemnn+520ZTnMwECGJ91qNvN+fvvv+Xatm1l5OjRbhdNeQgggEBYgSqVKskwNa7UGWecEXY+ExHQAgQwbAcRBbZu2SJt2rSRcRMmRMzDDAQQQMALgQrly8uwzz6Ts846y4viKdMHAgQwPuhEL5rw559/ytWtWsnkL7/0onjKRAABBBwJrFy+XEqVLu0oL5mCJcBdSMHqb0et3bhxozS76iqCF0daZEIAAS8FSp17rixdutTLVVC2pQIEMJZ2nFfV1o8GuKpJE5nBowG8IqZcBBCIU6DceefJooUL41yK7H4XIIDxew/H0b61a9dKUxW8zP766ziWIisCCCDgvUD5ChVk7pw53q+INVgjwDUw1nSVtxVdr468nFG0qLcroXQEEEAgSYH58+ZJxYoVkyyFxf0gwBEYP/Rikm3YtGmTtGrRIslSWBwBBBDwXqCiusWaa2K8d7ZhDRyBsaGXPKzjls2b5aqmTWXaV195uBaKRgABBNwVWLVypZQ85xx3C6U0qwQIYKzqLncrqwepa6mOvIyfONHdgikNAQQQSIHAup9/lqKc+k6BtJmr4BSSmf3iea127dol1117LcGL59KsAAEEvBLQp771sA+kYAoQwASw3/eqBzPepJ4o/fmoUQFsPU1GAAG/CMxRF/S2atlSNqtT4aTgCRDABKzP9+/fL506dpQBgwcHrOU0FwEE/Cigx6y6unVr2b59ux+bR5uiCBDARMHx46wuDzwg733wgR+bRpsQQCCgAhMnT5Z2110ne9TRZVJwBAhggtPX0uu116Sn+iMhgAACfhPQp8TvvecevzWL9kQR4C6kKDh+mjXy88+labNmfmoSbUEAAQSOEnjphRekS9euR01ngv8ECGD816dHtWj+/PmiB38iIYAAAkEQGKKu8Wutrosh+VuAAMbf/Ss//fSTFCte3OetpHkIIIBAVoHZGRlySdWqWSfyzlcCXAPjq+7M2pitW7ZI22uuyTqRdwgggEAABC6pVk1Wr1oVgJYGt4kEMD7tez3WS/v27SVj9myftpBmIYAAAtEFrm3bVv7666/omZhrrQABjLVdF73i9993nwxXF+6SEEAAgaAK6IHubmjXTnbv3h1UAl+3mwDGh9375ptvSu833vBhy2gSAgggEJ/A6C++kK5dusS3ELmtEOAiXiu6yXklZ8+aJfrcLwkBBBBA4IjARx9+KNffcMORCbyyXoAAxvouPNKA3377TU4vVOjIBF4hgAACCBwWWLxwoVxYvvzh97ywW4BTSHb33+Ha7927V269+ebD73mBAAIIIJBV4Ga1j+Si3qwmNr8jgLG59zLV/aknnxR9rpeEAAIIIBBeYMGiRdKpQwc5cOBA+AxMtUqAAMaq7gpf2RHDh8uzzz8ffiZTEUAAAQQOCwweNkxe6NHj8Hte2CvANTD29l2o5suXL5dz//tfy1tB9RFAAIHUCkwYN07q1a+f2pWyNlcFCGBc5UxtYdu3b5d6derIrLlzU7ti1oYAAgj4QGDNjz/KWWed5YOWBLMJnEKyuN/12AYELxZ3IFVHAIG0CnS47TbRN0CQ7BQggLGz3+QzdR6379tvW1p7qo0AAgikX2Di5Mny4gsvpL8i1CAhAU4hJcSW3oXWr18vZxQtmt5KpHjtr7z0kpQqVUpOPe00yZ8/v+TKmVP27d8vO3bskM3qWScbN26UDRs2yJo1a2TlihXy5YwZKa4hq0PAXIEKauyT0qVLS4kSJeTMM8+UQmq8qJNOOin0WcqTN68cPHhQdv7zj/z555+ydu1aGakeQxKkuxrnqAFAq1xyibkdSM3CChDAhGUxd6K+/a/ZVVfJyNGjza2kyzXr/tRT8oS6TTyepB9m+d1338mCBQtkrrpG6O13341ncfIiYLVAi2bNpEqVKlKpcmW54IIL5MQTT4yrPUuWLJHzzj8/rmVszlxRBXhTp02TAgUK2NyMwNWdAMayLu/dq5fcfc89ltU6uequVHdalVK/HpNN+o6tKeqQ8aRJk+TzUaOSLY7lETBGoEqlSlKnbl25Ql3UrwOXvOqoSrKpds2aMnX69GSLsWb5Ozp1kjfUc+RI9ggQwNjTV/LtN9/I+RdeaFGNk6+qvstqwsSJyReUrQR9qHy8uo3y8xEjZKgaR4eEgG0Cl6ijK82aN5dGjRtLmTJlXK/+W337Ssfbb3e9XJMLHPHZZyFTk+tI3Y4IEMAcsTD61c6dO+WKyy+XjNmzja6n25V7S/0i6qh+GXmZ9PUzw9WOa9DAgTJ95kwvV0XZCCQt8FDXrtKmTRvPn+nz66+/SqHChZOur20F/KKuMSxcpIht1Q5kfQlgLOn2B9Ut0y+8/LIltXWvmr+qC3NTuRNdqB729uEHH0jvPn3cawQlIZCkQJMrr5QbbrwxdLTFjdNDTqtzVdOmgTvd2lxdYzhM/aA55hhu0nW6naQrHz2ULvk41jt16tRABi+NGjRIafCiu+Siiy6S3q+/LlvUnU1vqP9JCKRT4N7OneW7Zctk1Jgx0qJlS1eubYmnPY3V6amgpeHqDqy333oraM22sr0cgTG82/7++285Xt02HMSkA4g77rwzrU3ft2+fjFVfHn3UEZlJU6aktS6sPDgCL7/4orS/6SY5+eST09roDep0SpGADdlwCJxReg9JmPs/R2DM7ZtQzZ7u1s3wGnpXvfoGPKckV65c0lQdUp6k7l6a9uWXog8vkxDwSuAd9cv/HzW20QPqlHG6gxfdxiJnnCF1atf2qrlGl3vfvfeGxscxupIBrxwBjMEbwGw1uFIQr3vRXXJxxYpSomRJo3qnZs2aMlzdtaQHvdLjbJAQcEvgw379ZM/u3XJbhw5y7LHHulWsK+XUVjcPBDGNGDlS+vfvH8SmW9NmAhhDu2q32pnpXwBBTbVq1TK26XrEzs/UrdezMzKkccOGxtaTipkv8L4aYFEHLje2by958uQxssK1A3oERneG7pdff/nFyH6hUiIEMIZuBa/27Cmzv/7a0Np5X61LL7vM+5UkuYZLqlaV0WPHyqQJE6RWjRpJlsbiQRJ4TX2+9amim2+5xdjA5VB/VFBHQ4OcHnn44SA33+i2cxGvgd2z6ocfpKR67k+Q0++bNskpp5xiDYF+xMPgQYPkmmuvtabOVDT1Ao889FDo+hb9HCKbUssWLWRYgAd8nDh+vNStV8+mLgtEXTkCY2A3d1EX8AU5Vb34YquCF91XesyIa9q2Df2q1neQkBDILHD9ddfJavXD5Lnnnw89RDHzPBteX6w+k0FO+iiMHkyUZJYAAYxZ/SFDBg8WffFYkFNli3eW+gJMfQfJhnXr5Nabbw5yN9J2JVBNXS81Vd1+/9HHHxt3UXo8HaQfChnkNH/RInmJHybGbQKcQjKoS7Zt2yYFChY0qEbpqcqATz6Rtj45FTNLXej7sDptYPsjCvQX8Qlq2zzuuOPk+OOPD/0dd+h/NU1fgJozZ07JnTu35FS3nudWf/oW9BzqyNS+vXtFj6ezf/9+2fvva/1e/6LV4xxl/tuh3m/fvt0XDxF884035NZbbw2ZpOeT5N5agzweVWbFVStXSslzzsk8iddpFCCASSN+9lU/8fjj0v2ZZ7JPDtz75d9/L+eee65v2q2/tPXInnfefbdxbdJjfBRRz33R433ov8KFCsnJ//d/8n/qT49Doq/V0IFIutLWrVvljz/+CP3pB3BuUs+tWq8GV9ugHjGhB1kbpS6iNi3dou5ceVp9jlP5CIxUGNRUF6pP++qrVKzK2HW0adVKBg0ZYmz9glYxAhhDevwHFdmfU7q0IbVJbzX27tnji1+t2RX1F68+l/6ROsKUytRUDQdfokSJ//2psXVKnH22nKFGV82XL18qq+HZuvSRnd/UgwfXrFkjq3/8UVavWiWrV68O/T9n3jzP1pu94ErqMRQ9XnhBLr/iiuyzfPG+oxqj5q133vFFW5JphH6KvQmDbCbTBr8sSwBjSE+2Vs85GaIeIBb0VPPSS2XajBm+ZhilrnFq4sGIvg3VXRJly5WTsmXLShn1V1oFxAUDfkpSB8M6sFmmniek//RzhQao68zcTk+qo6cPqlOFpg1C52Y7e732mnQO8NhUhyz1IJtfqVPDpo7bc6ieQfifAMaAXh6vbtGrrx5cSBLppH7l9Q3Ag9S2btkiTz75pLzWu3dC3a4fdKnH59APnyyngpaz1FEVnp7rnFKfltIBzTeLF8uCBQukv7rINpGkx/95VX2xX1i+fCKLW7XMBLWfqsd+KtRnvVWf360etElKrwABTHr9Qxc3XqZ2ghmzZ6e5Jmasvterr0rne+4xozIpqMWX6vlKtRyMdHp7x46hYKVChQqhgCW3oaO2poDMs1X8/PPPsmD+/FBAM0+depowaVLUdb2kThfdo45I6AuXg5C0z5nFigWhqY7a+KcKgk14XpWjyvo0EwFMmjv2A/UMlPbcbnu4F0apR9k3adr08PsgvNB3nz35xBPyaq9eh5urA5Zq1apJterVpXjx4oen8yJ1AvpuqDnqh0WGOl2QMXOmTJo6NbRyfdSlt3pS+nnnn5+6yhiwJj1Y4zHqTjPS/wQe6to1dM0THukTIIBJn33odtH8BQqksQbmrVr/AtZHGYKY5qu2n3jiiaGLbYPYftPbvGXzZlmkTjlVV4FlUI+AVVKfzXkLF5reVSmrnx6c0LSHzqas8QasiIHs0tgJvTP94k5jNYxatb6lN6ipon4Ct7pbiGSmwAkquNQPGQ1q8KJ7Rd9qTzoi8HT37kfe8CrlAgQwKSf/3wo3qvEsHlV3LpCyCpx66qlZJ/AOAQSMEQjyD4xwnfChuvhbXwROSo8AAUx63EU/bZqUVaCiupODO2mymvAOAZMECqmBDklZBZ579tmsE3iXMgECmJRRH1nROvWcnB48V+MIyL+vTjjhhKOmMQEBBMwR0NdokbIKfDZihMzw+dhVWVtszjsCmDT0BQ8FC4/Oc6DCuzAVAVME8ufPb0pVjKrH8889Z1R9glIZApgU97Qe5rx3nz4pXqsdqyvIHVl2dBS1DKxA0Ed2jtTx4yZMkInqj5RaAQKY1Hpz7UsUb24pj4LDLAQMEOAzGrkTXnnllcgzmeOJAAGMJ6zhC9XPZOnTt2/4mUzl2SJsAwgYLpCXEaAj9pAeuXnqlCkR5zPDfQECGPdNI5b4mhomnxRZgDuQItswBwETBPiMRu+FV15+OXoG5roqQADjKmfkwvRzRHqp4cdJkQXYOUa2YQ4CJgjwGY3eC2PVAy+nT58ePRNzXRMggHGNMnpBbxC8RAdSc9k5xiQiAwJpFchxDF8ZsTqAEdZjCbk3n63RPcuIJf2hnlr6AocWI/ocmrFnz55DL/kfAQQMFNjLZzRmr+hxYRYvWhQzHxmSFyCASd4wZgnvv/dezDxkENm5cycMCCBgsMA///xjcO3MqVofhspISWcQwHjMvGPHDnnw4Yc9Xos/iv9HWZEQQMBcAQIYZ33zXr9+ou86JXkrQADjra98+sknHq/BP8XrYI+EAALmChDAOO+bt95803lmciYkQACTEJuzhQ4cOCCcPnJmpXP9+eefzjOTEwEEUi7AZ9Q5ub7uceuWLc4XIGfcAgQwcZM5X2DixIkyd/585wsEPOeUadMCLkDzETBbYNOmTWZX0LDafcIReE97hADGQ95333nHw9L9WbQ+akVCAAEzBX7//XczK2Zorfqpa2H2799vaO3srxYBjEd9+P3334u+nY4UnwC/8OLzIjcCqRT45ZdfUrk669e1QN1OPW7cOOvbYWoDCGA86hmufUkM9qe1axNbkKUQQMBzgZGjR3u+Dr+tgO8C73qUAMYD2+3bt8vLPXt6ULL/i1xLAOP/TqaFVgrs2rXLynqnu9IjRo6UVT/8kO5q+HL9BDAedOtnw4Z5UGowily9enUwGkorEbBM4Mcff7SsxuZU96OPPjKnMj6qCQGMB535Uf/+HpQajCK/++67YDSUViJgmQCfzcQ7rPszz8ju3bsTL4AlwwoQwIRlSXzifHXb9FSeRpow4CcDBiS8LAsigIB3At8tXepd4QEoeaQ6lURyV4AAxl1PRt51wZPBslxApAgEXBb4dskSl0sMVnGMyu5+f+c4qJL7xQazRD3M9rHHHRfMxrvY6gnqtsN69eu7WCJFIYBAMgJ6LJOcuXIlUwTLKoG16vlIxYsXx8IlAY7AuASpixkzZoyLpQW3qHnz5gW38bQcAQMF9LhWpOQFBg8alHwhlHBYgADmMEXyL9g4kzfUJWRkZLhTEKUggIArAhkzZ7pSTtALGTJkiHDSw72tgADGJct169Yx8q5LluMmTJCtW7e6VBrFIIBAsgIzZsxItgiWVwJ6ZN6ZBIOubQsEMC5RMvaLS5D/FjOdBzu6C0ppCCQooG///XTgwASXZrHsAsOGDs0+ifcJChDAJAiXfbERw4dnn8T7JAQmqKMwJAQQSL/ADIaFcLUTer3+uuzZs8fVMoNaGAGMCz2vB3iazmFBFySPFPFG3758yI9w8AqBtAmM5vlHrttPnjzZ9TKDWCABjAu9ztEXFxDDFMGHPAwKkxBIoYA+fdS7T58UrjEYq+I7w51+JoBxwfHzESNcKIUisguM4ZdfdhLeI5BSAa5F84b73ffflx07dnhTeIBKJYBJsrMXq6vK5y1cmGQpLB5OoPM994SbzDQEEEiRQK3ataV1ixYpWluwVjN50qRgNdiD1hLAJIk6duzYJEtg8XAC+sLB0qVLh5vFNAQQSJFA7ty55f0PPpDLa9ZM0RqDsxq+O5Lvax4lkKRhtUsukYw5c5IshcUzC3yiHj1/Xbt2mSfxGgEE0ijw22+/yemFCqWxBv5c9e5duyRv3rz+bFwKWsURmCSQly9fTvCShF+4Rbs+8ADBSzgYpiGQRoHTTz9dFnOq3PUe4Bqj5EgJYJLwG8uzj5LQO3rRK9UDHJ999tmjZzAFAQTSLnBh+fIyhGf5uNoPnEZKjpNTSEn41atbVyZwIVYSglkX/e3XX0X/0iMhgIC5Ao88/LA816OHuRW0rGYH1JO+jzmGYwmJdBtqiaipZTZt2kTwkqBduMUmT5xI8BIOhmkIGCbwVLduUkfdnURyR2Dx4sXuFBTAUghgEuz0KYykmKDc0Ys9/uijckWdOkfPYAoCCBgnkCdPHnnrnXeMq5etFeJ26sR7jgAmQTs2ugThsi1Wq0YNefyJJ7JN5S0CCJgsUKJECRnMAx5d6aJJXIaQsCPXwCRAt1c9iCs3t74lIHf0It+qw6fnX3DB0TOYggACxgtcd+218smAAcbX0/QKblS3qZ922mmmV9O4+nEEJoEumT9/fgJLsUh2geeeeYbgJTsK7xGwSODlV16xqLbmVnU6T/xOqHMIYBJgY2NLAC3bItWrVpUHunTJNpW3CCBgk4C+a3AQR2CS7rKvCGASMuQUUgJsDdV4JV9MmJDAkixySEA/KqCGuv6FhAACdgscPHhQmjZuLKN4rEpyHakcSfEJEMDE5yVbt26VgiecEOdSZM8scMtNN8l76mmsJAQQ8IfAsmXLpGy5cv5oTJpasUKN7M7z3+LD5xRSfF6SkZER5xJkzy7QvXv37JN4jwACFguULVtWHnnoIYtbkP6q66PSpPgECGDi85JZBDBximXN3uO556RwkSJZJ/IOAQSsF+jStav1bUhnA/huiV+fU0hxml2hRqCc/OWXcS5F9kMC27dtk/z58x96y/8IIOAjgddefVXuue8+H7UotU05eOCA5MiRI7UrtXhtBDBxdN429eVboGDBOJYga2aBt/v2lQ4dO2aexGsEEPCRwD///CPHHnecj1qU2qb8sGKFnFOqVGpXavHaOIUUR+d9PXduHLnJml2gvbp4l4QAAv4VOPbYY+Xdt9/2bwM9btns2bM9XoO/iieAiaM/2bjiwMqW9c033hD9DBUSAgj4W+C6du383UAPWzeXH8lx6RLAxMHFCLxxYGXLesMNN2SbwlsEEPCjQL58+eS1nj392DTP2zTv6689X4efVsA1MA57c9++fZIrd26HucmWWeDlF19k1N3MILxGwOcCjJeVeAf/+ccfcvLJJydeQICW5AiMw87+/vvvHeYkW3aB6zn6kp2E9wj4WqCgutnhIR4VklAfL1q4MKHlgrgQAYzDXl/IRuVQKmu2jrfdJqeeemrWibxDAAHfC9zIRfsJ9THfNc7ZCGAcWi1csMBhTrJlFrj5llsyv+U1AggERODcc8+VZk2bBqS17jWT7xrnlgQwDq2+WbzYYU6yHRKoUb26VKpU6dBb/kcAgYAJXHvddQFrcfLNHTR0aPKFBKQEAhgHHb17926Z9tVXDnKSJbNA69atM7/lNQIIBEygYcOGAWuxO839ZcMGdwryeSkEMA46eDkX8DpQOjpLixYtjp7IFAQQCIyAHtjuzk6dAtNetxq6dOlSt4rydTkEMA66d8mSJQ5ykSWzQKvmzaVQ4cKZJ/EaAQQCKNCiVasAtjq5JhPAOPMjgHHgtJQAxoFS1ixXNmqUdQLvEEAgkALV1bVwpPgElnEExhEYAYwDpu+++85BLrJkFqjfoEHmt7xGAIGACuRWA4B26tAhoK1PrNl85zhzI4Bx4DRq7FgHuchySKBhvXpy+umnH3rL/wggEHCB+vXrB1wgvubPVo8U2LNnT3wLBTA3AUyMTt+0aVOMHMzOLlBXBTAkBBBA4JBArdq1D73kf4cCq1atcpgzuNkIYGL0/coVK2LkYHZ2gUtr1Mg+ifcIIBBggQIFCkgDftjEtQX8sHJlXPmDmJkAJkavr2QjiiF09OwLL7zw6IlMQQCBQAtwMW983c93T2wvApgYRhyBiQGUbfYN7dpJzpw5s03lLQIIBF2gGncjxbUJ/PDDD3HlD2JmApgYvb5mzZoYOZidWaBKlSqZ3/IaAQQQCAnwWJH4NgS+e2J7EcDEMFq7dm2MHMzOLHDRRRdlfstrBBBAICRw3HHHyWUchXG8NUyaMsVx3qBmJICJ0vP79u2TufPnR8nBrOwC519wQfZJvEcAAQRCAheWL49EHAKbN2+OI3fwshLAROnzdevWRZnLrOwCl9esKfny5cs+mfcIIIBASKA8AUxcW8JaLmGI6kUAE4WH00dRcMLMKluuXJipTEIAAQT+J/DfMmWgiEOA76DoWAQwUXzWcwQmis7Rs0qXLn30RKYggAAC/wqUKlUKizgENmzYEEfu4GUlgInS57/88kuUuczKLnDOOedkn8R7BBBA4LDAiSeeePg1L2IL8B0U3YgAJooP0W8UnDCzSnEEJowKkxBAILNA08aNM7/ldRSBXzgCE0VHhAAmCg/RbxScMLOKFi0aZiqTEEAAgSMCxYoVO/KGV1EFfvn116jzgz6TACbKFkD0GwUnzCxG4A2DwiQEEMgiUKRIkSzveRNZYOLkyZFnMocjMNG2gVlz50abzbxMAk2uvDLTO14igAAC4QUKFy4cfgZTwwro8chI4QU4AhPeRf75558Ic5gcTqAwv6rCsTANAQSyCRDAZAOJ8favv/6KkSO4swlgIvT9H3/8EWEOk8MJnHrqqeEmMw0BBBDIIsC+IgtHzDd8F0UmIoCJYPP7779HmMPkcAInnHBCuMlMQwABBLIIFGRfkcUj1hsCmMhCBDARbP4ggIkgE34yAUx4F6YigEBWgYIFCmSdwLuoAnwXReYhgIlgQ9QbASbCZAKYCDBMRgCBLAL5CWCyeMR68+eff8bKEtj5BDARun7r1q0R5jA5nED+/PnDTWYaAgggkEXgmGP42skCEuMN30WRgdiSIths27YtwhwmhxPInSdPuMlMQwABBBBIQmD79u1JLO3vRQlgIvQvUW8EmAiT8+TOHWEOkxFAAAEEEhXgx3RkOQKYCDZsNBFgIkzmCEwEGCYjgMBRAhXKlz9qGhPCC2zjcobwMGoqAUwEGo7ARICJMDlXzpwR5jAZAQQQyCrA/iKrR7R3/JiOrEMAE8Fmx44dEeYwOZzA/gMHwk1mGgIIIHCUwL79+4+axoTwAowKH95FTyWAiWCzc+fOCHOYHE5g39694SYzDQEEEDhKYMGiRUdNY0J4gV27doWfwVQCmEjbwE6ehRSJJuz0vTxwLKwLExFAAIFkBAhgIutxBCaCDRtNBJgIk/dyBCaCDJMRQACBxAUy5sxJfGGfL0kAE6GD586fH2EOk8MJcAopnArTEEAAAQS8EiCA8Uo2YOVyCilgHU5zEUAAgTQLEMCkuQP8snqOwPilJ2kHAgggYIcAAYwd/WR8Lblry/guooIIGCGwe/duI+pBJewXIICxvw+NaAGDLRnRDVQCAeMF2FcY30XWVJAAxpquMrui7JTM7h9qh4ApAgyNb0pP2F8PAhj7+9CIFhDAGNENVAIB4wXYVxjfRdZUkADGmq4yu6LslMzuH2qHgCkC27ZvN6Uq1MNyAQIYyzvQlOpv37bNlKpQDwQQMFiAfYXBnWNZ1QhgLOswU6vLERhTe4Z6IWCWAPsKs/rD5toQwNjcewbV/c8//zSoNlQFAQRMFWBfYWrP2FcvAhj7+szIGk+dPt3IelEpBBAwS+C3334zq0LUxloBAhhru868iu/ds8e8SlEjBBAwSmAjAYxR/WFzZQhgIvTexRUrRpjD5EgCGzdtijSL6QgggEBI4Ndff0UiDoEqlSrFkTtYWQlgIvR3rty5I8xhciQBDg1HkmE6AggcEvht48ZDL/nfgQDfRZGRCGAi2OTNkyfCHCZHEviNX1aRaJiOAAJK4ODBg7Jg0SIs4hDIw4/piFoEMBFo8ufPH2EOkyMJcAQmkgzTEUBAC3AHUvzbQf4CBeJfKCBLEMBE6OgCBQtGmMPkSAJr166NNIvpCCCAgPz0008oxClQgAAmohgBTAQaNpoIMFEm/7h6dZS5zEIAgaALrGYfEfcmUJAAJqIZAUwEGgKYCDBRJrNzioLDLAQQEH7kxL8RcAopshkBTAQbApgIMFEmz50/XxgLJgoQsxAIuAA/cuLfAPguimxGABPBpiDXwESQiT6Z62Ci+zAXgSALcAQm/t7nuyiyGQFMBBvuQooAE2Py6h9/jJGD2QggEEQBfQv1lGnTgtj0pNrMd1FkPgKYCDYctosAE2PyyhUrYuRgNgIIBFHg559/DmKzk24zR2AiExLARLA56eSTI8xhcjSBb7/5Jtps5iGAQEAFlnz7bUBbnlyzTzrppOQK8PHSBDAROvf0006LMIfJ0QS+ZScVjYd5CARW4Bt+3CTU96fxXRTRjQAmAs1pp58eYQ6Towl8vWCBbNm8OVoW5iGAQAAFOAKTWKfzXRTZLYe6sOpg5NkBn5MjR8ABEmv+jOnTpUaNGoktzFIIIOBPAfanifUrX9ER3TgCE5FGhMeYR8GJMotfWlFwmIVAAAXWr18fwFYn32S+g6IbEsBE8eHQXRScKLMWqtNIJAQQQOCQAPuEQxLx/c93UHQvApgoPqdzHUwUnciz3v/wQ+HMZGQf5iAQNIFZGRlBa7Ir7eU7KDojAUwUH67+joITY9by5ctj5GA2AggERWAmAUxCXU0AE52NACaKz+mFCkWZy6xoAhkzZ0abzTwEEAiIwKZNm2TmrFkBaa27zeQUUnRPApgoPsWKFYsyl1nRBDhkHE2HeQgER2A2wUvCnc13UHQ6ApgoPmeddVaUucyKJtCvf3+ug4kGxDwEAiKQwemjhHua76DodAQwUXyKFy8eZS6zYgksWrQoVhbmI4CAzwWmTpni8xZ61zwCmOi2BDBRfI499tgoc5kVS2D8uHGxsjAfAQR8LLB06VKZzw+ZhHs4X758CS8bhAUJYGL08lVNmsTIwexIAuPHj480i+kIIBAAAX7EJN7JfPfEtiOAiWHEIbwYQFFmz1B3Iq1duzZKDmYhgICfBSbwIybh7uW7JzYdAUwMIzaiGEAxZvMLLAYQsxHwqcAG9fiASVOn+rR13jeL757YxgQwMYzYiGIAxZg9dsyYGDmYjQACfhQYO3asH5uVsjbx3RObmgAmhtE5pUrFyMHsaAKjv/iC00jRgJiHgE8Fhg4Z4tOWpaZZfPfEdiaAiWFUsmTJGDmYHUuAHVksIeYj4C+B77//ntNHSXYp3z2xAQlgYhjlypVLrqhVK0YuZkcTGDJ4MIPaRQNiHgI+E9CfeVLiAnVq1xb93UOKLkAAE90nNLdM2bIOcpElksC8hQtlzuzZkWYzHQEEfCSwf/9+ebJbNx+1KPVN+W+ZMqlfqYVrJIBx0Gll2JgcKEXPMnDgwOgZmIsAAr4QmDxpki/akc5GlOVHsyN+AhgHTGXLlXOQiyzRBHr36SN//PFHtCzMQwABHwi89+67PmhFeptAAOPMnwDGgRMbkwMkB1n6f/ihg1xkQQABWwX0xbtDhw+3tfrG1JvLFpx1RY6DKjnLGvBcOXIEHMCd5u/dvVty58njTmGUggACRgnce8898mqvXkbVycrK8LXsqNs4AuOISeTaa65xmJNs0QQ+Hzky2mzmIYCApQJ//vknwYsLfcd3jXNEAhiHVhUrVnSYk2zRBPq+8Qa3VEcDYh4Clgpw7Ys7Hcd3jXNHAhiHVhUrVXKYk2zRBKZOny48XiCaEPMQsE9g8+bN8uDDD9tXcQNrzHeN804hgHFoVb58eYc5yRZL4KUXX5QDBw7EysZ8BBCwRKDP669bUlPzq8l3jfM+IoBxaHX88cdL7csuc5ibbNEEps+cKSM//zxaFuYhgIAlAnp4hMeffNKS2ppdzctr1hT9XUNyJkAA48wplKsSp5Hi0Iqe9eWXXxY9YicJAQTsFujNXUeudSDXv8RHSQATh1cFApg4tKJnzVCPFmBcmOhGzEXAdIHVq1ZJ92eeMb2a1tSP75j4uooAJg4vouM4sBxkvemWW+Svv/5ykJMsCCBgosBjjz5qYrWsrRPfMfF1HQFMHF5nn312HLnJ6kTg+eeec5KNPAggYJjAuHHjZOCQIYbVyu7q8B0TX/8RwMTnJbepowYk9wReeuUVWfLtt+4VSEkIIOC5wG41ovaTjz/u+XqCtIIOt94apOa60lYCmDgZa9SoEecSZI8lcP/998u+fftiZWM+AggYIvBCjx7y9YIFhtTGH9XguyX+fuRZSHGa/fzzz3JmsWJxLkX2WAKvvPSS3P/AA7GyMR8BBNIsMG/ePKlUuXKaa+G/1a9T3y1Fixb1X8M8bBEBTAK4F6u7kebOn5/AkiwSTWDpkiVSrly5aFmYhwACaRTYuXOnXF6rlsyaOzeNtfDfqquo75Q5X3/tv4Z53CJOISUAfFnNmgksxSKxBO6+807Zu2dPrGzMRwCBNAk88/TTBC8e2NdgkNSEVAlgEmDjXGUCaA4W0c9JelrtIEkIIGCewPjx4+XZ5583r2I+qBHfKYl1IqeQEnDTDy478aSTEliSRZwIjBk1Sho1buwkK3kQQCAFAmvXrpXiZ52VgjUFcxVb1HhYJ5x4YjAbn0SrOQKTAN6JakOre8UVCSzJIk4EGjVpIqtXr3aSlTwIIOCxwK5du+Tm9u09Xktwi69Xpw7BS4LdTwCTIFzdunUTXJLFnAjoHeY///zjJCt5EEDAQ4GuXbrIlGnTPFxDsIuuowIYUmICBDCJuUn9Bg0SXJLFnAhM++or6XDbbTzw0QkWeRDwSODVnj2ld58+HpVOsVqA75LEtwMCmATt9O2+FcqXT3BpFnMi8PGnn8qjDz/sJCt5EEDAZYGhQ4fKvWqQSZJ3Avo7hKEjEvclgEncTurXr5/E0izqRKCHGuDuzTfecJKVPAgg4JLATHUEtFXr1i6VRjGRBPgOiSTjbDoBjDOnsLnqEcCEdXF74u1qfJjBgwa5XSzlIYBAGIGFCxdKdR6ZEkbG/UmcPkrOlNuok/Dbu3ev5M6TJ4kSWDQegWHqkHbLli3jWYS8CCAQh8AiFbyUr1AhjiXImoyAHrgzd+7cyRQR6GU5ApNE9+sN7/aOHZMogUXjEWjZqpWMGD48nkXIiwACDgW+WbyY4MWhlRvZ9HcHwUtykgQwyflxHUySfvEu3qxFCxk2bFi8i5EfAQSiCHytnsNzATclRBFyf1YD7mRNGpVTSEkS6oeb5Tv22CRLYfF4BfqqC3s73X57vIuRHwEEsgmMGzdOGjRsmG0qb70W2KnGucqXL5/Xq/F1+RyBSbJ79QZ4R6dOSZbC4vEKdLrjDnnqySfl4MGD8S5KfgQQ+Fegf//+BC9p2BruVN8ZBC/JwxPAJG8ozZs3d6EUiohX4Knu3aWTOo+shzonIYCAc4H9+/dL927d5IYbb3S+EDldE2iuToWTkhfgFFLyhrJv3z7JxZXkLkgmVkSd2rXlA/VL8owzzkisAJZCIEACW9TDaPUo14O5lixtvb5P3cGaK1eutK3fLyvmCIwLPak3xIe6dnWhJIpIRGDS1KlyRtGiogffIiGAQGSBpUuXSh31IFqCl8hGXs/R3xUEL+4oE8C44ygcEnQJMoli9OBbPV95hecnJWHIov4V6Pf++1LuvPNknhrrhZQ+Ab4r3LPnFJJLlvpi0kpqAKj5ixa5VCLFJCrQ5Mor5Y2+faWoOipDQiDoAr///rt0vvtuGcBo1mnfFCpddJF8PX++5MiRI+118UMFOALjUi/qDbIFo8S6pJlcMaPGjpWiZ57JeDHJMbK0DwS++OILOeXUUwleDOlLffSF4MW9ziCAcc9S2l57rYulUVSyAnrk3rbXXCPr1q1LtiiWR8AqgV9//VXa33CDNFRHI0nmCPAd4W5fEMC46FmsWDFpze1xLoomX5Q+bK6PxrylTinpW0dJCPhZ4MCBA6KvdSlUuLB88NFHfm6qdW27Wh2h198RJPcECGDcswyV1O76610ukeLcEOioRu2tc/nl8hV3KrnBSRkGCsyYMSO0jd90yy0G1o4qXdeuHQguC3ARr8ugoaeL5s3rcqkU56ZAO3Wq70k1im/Jc85xs1jKQiAtAj+sXCnd1KB0nwwYkJb1s1JnAjx52plTPLk4AhOPloO8ufPkke5PPeUgJ1nSJfDxp59KyVKlpMsDD8iG9evTVQ3Wi0BSAmvXrg3dXXRO6dIEL0lJer+w/k7gydPuO3MExn1T+fHHH+XsEiU8KJkivRDoqgKZzp07SxFG8vWClzJdFtCBy6s9e0qv1193uWSK80rgx9Wr5eyzz/aq+MCWyxEYD7peb6jNr7rKg5Ip0guBF19+WYqoMWPuUUHM8uXLvVgFZSKQtMCCBQvkVnV9S/GzziJ4SVozdQW0aNaM4MUjbo7AeAQ7etQoady0qUelu1tsjerV5eKLL5YyZcpIseLF5VQ1bkSBAgVkz+7dsmnTJlmvTrOsWrVKvlm8OBBDkOu7BTqop8XWqlWLMRvc3dQoLU4B/Zy1cWosl7ffekvGjBsX59JkN0FgjPouaNS4sQlV8V0dCGA86lJ9y+7FlSoZPTJvl/vvl47qac4lSpZ0rKDbtUw9TyUjI0NGqQ/muAkTHC9rW8aqKqi79rrr5Oo2beT//u//bKs+9bVYQJ8m+vSTT+TRxx+3uBVUXY+8O+frryVnzpxgeCBAAOMB6qEi9dgj+vZdE9PkiRPlijp1kq6a3tEO/+wzuU9dR+LndEv79tJGDYp3Wc2aXIzn545OY9u2b98eOtoyZMgQGTZ8eBprwqrdEnhbfQd0UD8SSd4IEMB44xoqVe+Q8qtTMaalDrfeKm+/846r1dqrHg8/YsQIeUNdWDh95kxXyzatMH3Rb/PmzeXiKlU4xWRa51hWn93qNO3kyZNlhPoR8N4HH1hWe6obS2D7tm2SP3/+WNmYn6AAF/EmCOdkMb3hPvHYY06ypjRPoUKFXF+fvkWwdevWMk0NpvW5z3896ot+q1StKjmOOUa6dukiU6dMkT179rhuSoH+FNi8ebMMGTxYbrrxRsn7n//IlY0aEbz4sKv1vp/gxduO5QiMt77y888/y5mGDR9dp3ZtmaS+dL1Mu3btkj7qaMwDXbt6uRqjytanmWqqC3/13xnckm1U36SzMnp4f30B/LRp00J/I0ePTmd1WHeKBH7+6Sc5Uz3GhOSdAAGMd7aHS77lppuM+4U1dswYuTIFD3pbsWKF3HnHHZ4HTIexDXlRTZ1eqnHZZVJVHanRp5r0nV2kYAjogEXfjj9n9myZNWuWvNevXzAaTisPC+gfM/T7YQ7PXhDAeEZ7pOB58+ZJpcqVj0ww5NU6dXSoqBr/xOukr495+aWX5OFHH/V6VcaWr+9o0oFMxYoVpby6M6G0Gj2VOxOM7a64KrZNXeewWB1hWbRwocyfP1/0SM+kYAvMU3ceVVJ3oZK8FSCA8db3cOnN1WBGwz///PB7E17oL9URI0fKaaedlpLqTBg/Xuo1aJCSddmwkibqCNgFF14oZcuWDf2VUkFN3rx5bah6YOv4xx9/yLJly/73p4YT0IFLhjrSQkLgkIAexHS4uqGB5L0AAYz3xqE1zFRPQa5eo0aK1uZ8NVXUr4RB6rbN4moAu1SkVT/8INephynOUUelSEcLXFqtmpRWz2nSD5rUf+eoMXrOUiM764EFSakROHjwoPz222+ih3//QW2vK9XDEvUDE4f6/OL01Oj6fy0Zal9fTQ0OSvJegADGe+PDa2ii7jYYNXbs4fcmvZilbn2uqr48U5F+//13aasGh5s0dWoqVuebdVzx78XBRdWFgfrU3+H/1euCBQv6pp2paMjWLVtCF9j/pC601Bfa6wsu9f/6fcacOamoAuvwoYA+qjpKXV9ISo0AAUxqnENr+fLLL6WWugPI1NSnd2+54847UzK2iR4jRx+J4Y6M5LeGgeqai2vatk2+oACVMGzYMGnZqlWAWsIUMOEAAB4LSURBVExTUyEwTe3ja6rBLkmpESCASY3z4bU0qF/f6OH3W7doEXpQnBdjxRxG+PfFjh07pI0aO2a0etYLKTGBIYMGSeurr05s4YAvNU49W6hBw4YBV6D5bgk0qFdPxqnr/EipE2Agu9RZh9Z03333pXiN8a1uiBoRtFDhwvK6Ohqz1+PB2Y477jgZoL6A615xRXyVJHdI4EN1ey7BS+IbQwN1QbkeAZeEgBsC96tny5FSK0AAk1pvqVO3ruiB5ExPd3XuLLVVPRcvWuRpVfVIlZ8OGCAXq9uLSc4FHlIjAN+oxpogJSfQTD0SQp86JSGQjECdyy935dlyydQhiMtyCikNvT550iS5QgUytqQ3+/SR29VgdF6m1eqOj3ieiu1lXUwvW9+mOWToUMmVK5fpVbWmfrd36iRvvvWWNfWlomYJTFH79Ms5kpzyTiGASTn5/1bYTH0J6TFYbEl6ZMk+b74p/1HPbvEq6WcK1WYnEJP31w0bQqf5YmYkg2MBfT2WPpXJHUiOycj4r0Czpk1lhGFjfAWlcziFlKaefvyJJ9K05sRWq5+Ue5X6oOqBvLxKtdVh2FfUiL2kyAL6IYD6GiWSuwL6eqw3+/Z1t1BKC4SAbftyP3UKAUyaevMiNZz8zepptDal8RMnStMmTeTXX37xrNr3qoucW6hRi0lHC1x/3XWhJ34fPYcpbgjoUZGf6d7djaIoIyAC+si03peT0iPAKaT0uIfWunrVKimhRlu1LVVSH9iRo0ZJ4SJFPKn6L+oUSWGe5nyU7do1a1I2YvJRKw/IBP0U9WrqAZwLPL54PSCcvm9maB9eooTv22lqAzkCk8ae0Retdn3ggTTWILFVz1MPrWupxovRI+p6kXRg9OnHH3tRtLVlPvHYYwQvKeg9fY3X448/noI1sQrbBfS+uwTBS1q7kSMwaeUX2bhxo5x2+ulprkViq7+8Zs3QSLrHH398YgVEWUo/j6Zp48bGPnohStU9mbXlr7/khBNP9KRsCj1aoG6dOjJx8uSjZzAFgX8FNqrnZaXqQbighxfgCEx4l5RN1R+Al198MWXrc3NFU6ZNkw633Sb79+93s9hQWTly5JAelrq4jfFijx4EL26jxiivixpnh4RAJAG9zyZ4iaSTuukcgUmddcQ16fPu1dV59/mWnnd//NFH5elnnonYvmRmdHvqKXmyW7dkirB+2d83bZJTTjnF+nbY1oDL1cMzdZBOQiCzQMXy5WXmrFmeDimReX28jizAEZjINimbo8+7d3v66ZStz+0VPf3sszLSo3EQunTtKhXUDiOoqfNddxG8pKnzb1VHF0kIZBfQ+2ovx8PKvj7eRxbgCExkm5TPad2ypehnEdmaVq1cKSU9uKtq5ldfSfUaNWxlSarey5YulbJlyyZVBgsnJrBHPQssT968iS3MUr4UuFrtowerUbBJZghwBMaMfgjV4tnnnjOoNvFXpVPHjrJ37974F4yxRPVLL5UnA3hnyBXqFAbBS4yNw8PZefLkkcceecTDNVC0bQLPqKPNJHMECGDM6Qs5p1QpecqyEXoz802aOlVeefnlzJNce/2Ius5G3/UUpHQVA/qlvbuvvvrqtNeBCpgh0O3JJ0P7aDNqQy20AKeQDNsOtm/fLvkLFDCsVvFVZ+GCBZ6MTrl27VopftZZ8VXG4tzrfv5ZihYtanEL/FF1PbBdxuzZ/mgMrUhYYPu2bZI/f/6El2dB9wU4AuO+aVIl6g/IZ5afY73/3ntl3759STmEW7h48eIyacKEcLN8N61hvXoEL4b0aoMGDQypCdVIl8DwYcMIXtKFH2W9BDBRcNI1q4W6UKxtmzbpWn3S6/1yxgx59513ki4nXAF16taVtwPw0L3LeSp3uO5Py7QGDRumZb2s1AwBvS9urkYeJ5knwCkk8/okVKMN69dLEctPH/yqnmnk1ZOTH1dD6+vbt/2a5qpTFhdXqeLX5lnVrgMHDsgxOXNaVWcq657AhnXrpAjPZnMP1MWSOALjIqabRekPzPvvvutmkSkv61mPBrfTDemmnhp89513prxNqVohT7hNlXTs9RxzzDFyY7t2sTOSw3cC/d57j+DF4F4lgDG4c9rfdJM0svj8ex91qmfZsmWeCOsvldd69fJlENOqeXPJrW7hJZkjUK16dXMqQ01SIqD3vTe2b5+SdbGSxAQIYBJzS8lS+ku656uvpmRdXq3kWQ9HGD4UxDz84INeVT8t5XLqKC3sUVd6UYUKUecz038Cet+r9zEkcwXoHXP7JlSzUqVLW/uwR92AAYMHS8bMmZ4p6x3M8+phh3169/ZsHaku+L9lyqR6lawvhkC5cuVi5GC2nwReeekl0ftektkCBDBm90+odp3vuUfq1K5tQU3DV/Fljwa3y7y2O9UzgyaOH595krWvz2XHaVzf5VWPFAjaQIrGdUKKKqT3tXd37pyitbGaZAQIYJLRS9GyuXPnljfefDNFa3N/NSNGjpS5c+a4X3C2EuuqsVPWrlkjdS2/BTlIg/Vl60Kj35Y+91yj60fl3BHQ+1q9zyWZL0AAY34fhWqoD2e+59HYKqkgeP3111OxGtGD3X0xbpy1p91qX3aZ5OSW3ZRsK/GupGTJkvEuQn7LBPQ+llNH9nQaAYw9fSU333KL6Keh2pg+GTBAVq5YkZKq58qVSx7o0kVWLF8uLdUdPTaljrffblN1A1VXAhh/d7fet+p9LMkeAQIYe/pKcuTIIa9ZfLHq+2pMhVSm0uqo1bDPPpPx6oiMPrJharqmdWsZM3q07FePX2itXpPMFOC5VGb2i1u16qWOEut9LMkeAUbitaevDtd0lLqmpMlVVx1+b9OLbVu3SoE0PKzy4MGD8sUXX8g7b78tI1WwkO5Uq0YNaar6UAcshYsUSXd1WL8DgV9//dWzkaUdrJ4sHgqMVvvUxk2aeLgGivZCgADGC9UUlHnXHXfI6xZe2KtHtrzp5ptTIBR5FXpwvcGDBkl3D0cKDrf2JldeKfoZR40aN5YSJUqEy8I0gwX2798vOdXpSZK/BO5Sp21ff+MNfzUqIK0hgLG0o3fs2CF169SRDPXMHJuSPpUzddo0I6qsv5Dmz58vUyZPlhnqAZTjJ050tV5NGzWSC8uXl2rVqklV9Xf88ce7Wj6FpUGAUwxpQPduldWrVpUJ6nN/3HHHebcSSvZMgADGM1rvC16uLlI997//9X5FLq/h28WL5fwLLnC51OSL27lzpyxZskSWf/+9rFy5Utarh7ht+OUX2fzXXzJ/0aKjVnBxxYqhHd9pp50mRc88U8789++/qk9KqDtWGMXzKDLrJ1RXgejMWbOsbwcN+J+A/qyfy+3x1m4OHA+1tusk9MEbPHCgXH3NNVa1ol+/fqHnGJlW6Xz58knlypVDf07qNtdJJvL4SqBgGq7f8hWgQY0J7TsJXgzqkfirwl1I8ZsZtcTVbdrIPXffbVSdYlVG30mlL4gkIWCbQMGCBW2rMvUNI6D3mXrfSbJbgADG7v4L1b7HCy9IzUsvtaolvSx/SKVV2FTWNYE8PCXcNct0FaTvANT7TJL9AgQw9veh/Oc//5H31WkZm1IP9bC01atW2VRl6oqA5GKIeeu3gvfefz+0z7S+ITRACGB8shHoi0b1WAY2pccefdSm6lJXBHhGjuXbwJhRo0IX2FveDKr/rwABjI82BT0Q04s9eljTooFDhsiI4cOtqS8VRSAXz6mydiPQ+0Y9BhPJPwIEMP7py1BLunTtKu2vv96aVjVr0UI2btxoTX2pKAII2Cdw0w03iN43kvwlQADjr/4MPcujjxqhV1+oZkvqfNddcuDAAVuqSz0RQMAiAb0v1CPt8pwjizrNYVUJYBxC2ZRNjyrZ/+OPranyoKFD5dWePa2pLxVFAAF7BD765BNG2rWnu+KqKQFMXFz2ZNajws6aOdOaCt/fpYuMU0+NJiGAAAJuCczOyBCeIu6WpnnlEMCY1yeu1Ug/f+ejDz90rTyvC2rQsKEsDjNkv9frpXwEnArop5qT7BD4uH9/uUQ964jkXwECGP/2bahl16uL155L8VOXkyG98KKLZNUPPyRTBMsigEDABZ5/9llpZ9HNDAHvroSbTwCTMJ09Cz6ixlvRj4y3JZUsVYogxpbOClg9Of5ifofrfd3DjzxifkWpYdICBDBJE9pRQM/XXpPW6pZlW5IOYpYuXWpLdaknAggYIKD3cXpfRwqGAAFMMPo5NILo+x98IJfXrGlNi8udd5589dVX1tSXivpfgGtgzO1jvW/rp675y83jHsztJJdrRgDjMqjJxeXPn18+HThQKpQvb3I1s9TtUjWGw/vvvZdlGm8QSJcAAUy65KOvV+/T9L7t+OOPj56Rub4SIIDxVXfGbszpp58uA9UH3aZ08623yp3qvPbff/9tU7WpKwIIpEhg0KBBovdtpGAJEMAEq79DrS1VurR8Y9ntyn369pUrateWBQsWBLDHaLIpAhyBMaUnjtTj28WL5Rx1zRwpeAIEMMHr81CLL7jwQvl67lyrWj9n3jypULGiPP7YY7Jjxw6r6k5l/SFAAGNWP+p92PkXXGBWpahNygQIYFJGbd6KKleuLF/NmGFexWLU6Gk1xsNx6lz3sGHDhC+UGFjMdlWA7c1VzqQK0/suvQ8jBVeAACa4fR9q+aWXXiqTJkywUqFlq1ZSv149+fLLL62sP5W2T4AAxow+mzxxouh9FynYAgQwwe7/UOvr1K0ro0eOtFJiwqRJUktdG6MDGf0sJZ5qbWU3WlNpApj0d5XeV11Rp076K0IN0i5AAJP2LjCjAo2bNJGhQ4aYUZkEajFe/SLTz1KqrK6R6d2rl/z+++8JlMIiCMQQ4FlIMYC8nT1MPble76tICGgBAhi2g8MCrdQpmZEjRhx+b+OL+eruqrvvuUdOOfVUadO6tQxSt4xv3brVxqZQZwMFOAKTvk7R+6aWLVumrwKs2TiBHOoDyeM9jOuW9Fboiy++kIZXXpneSri89qaNGoVONdWqVUvKlisnuXLlcnkN8Re3a9cuWbZsmSxZskSWfPutnHHGGXLvfffFXxBLpEygvXo46gcffZSy9bGi/wmMU/ukBg0awIFAFoH078WzVIc3Jgg0VKdi9EVyV6hrY/ySRo4ZI6L//k1NGzeWChUqSDkVzOgxJEqWLCn58uU7NNvV/zdv3iyrV6+WH9Wf/l//rVy5UmbMnCkV1Jr0n042PXDzfzUO3r/83kt9n09R17k1uOKK1K+YNRovQABjfBelp4L6Irnp06bJZTVrpqcCHq915OjRIvovU9LDkRcpXFhOUyN6FipUSE5Vp6H00OT6lu3jjjtOjj322FBu/SUW+iJT//+zc6f8vX17aJTg7ep/fbpq48aN8ttvv8lG9TdLjVNxolqq4r9/mVZ31Eu+HI8iMW4Ch6tT2yUzpk+Xy9XjREgIhBMggAmnwrSQwGWXXSazMzLkkmrVAiGyQI9ObNkIxYHoGIMayV1uqeuMObNmSY1LLkndClmTdQJcxGtdl6W2wpdUrSqLFy5M7UoDujZ+3Zvf8RwlS00f6X1OFYKX1GBbvBYCGIs7L1VVv1CdWtHXb1RW14yQEAiyAEdgvO39i9UwCHpfo/c5JARiCRDAxBJifkjg7LPPlrFqoLg6atA4kjcC/Lr3xtXVUrlp01XOzIXpfcsYdbeR3teQEHAiQADjRIk8IYFTTjlFRqhRMFu3aIGIBwL8uvcA1eUi6SOXQf8tTu9T9L5F72NICDgVIIBxKkW+kIC+K+fTAQOkU4cOiLgswBEYl0E9KI4Axn3U2zt2lE/VgJN630JCIB4BAph4tMgbEsidJ4+82bevPN2tGyIuCvDl6CKmR0URZLoLq/chb7z5puTOndvdgiktEAIEMIHoZvcbmSNHDnn8iSdksPrlRHJHgC9Hdxy9LOUA18C4xjtk0KDQPkTvS0gIJCJAAJOIGsscFri6TRv5Wg3WRkpe4OCBA8kXQgmeCnCUzB1evc9offXV7hRGKYEVIIAJbNe71/DKlSvL+nXrpLYa+I6UuABHYBK3S9WSBDDJSet9hN5X6H0GCYFkBQhgkhVk+ZCAfhDh6LFj5cZ27RBJUIAvxwThUrgYR8kSx9b7Br2P0PsKEgJuCBDAuKFIGSEB/bygfh9+KM898wwiCQhwfUUCaClehCAzMfDnn31WPujfP/RMscRKYCkEjhYggDnahClJCBxzzDHyyKOPygQ16B0pPoH9+/fHtwC5Uy5AABM/ud4XPPzII8LFuvHbsUR0AQKY6D7MTVCgXv368tPatYzcG4cfpyfiwEpTVo6SOYfXI+vqfYDeF5AQ8EKAAMYLVcoMCRQrViw0NPj9996LiAMBjsA4QEpzFo7AOOsA/ZnXjwXQ+wASAl4JEMB4JUu5IYG8efPKKz17Ml6Mg+2BL0cHSGnOwlGy2B2gx3fRn3n92Sch4KUAAYyXupR9WECPF/PdsmVSvWrVw9N4kVVgP+PAZAUx8B1HySJ3iv5s688447tENmKOuwIEMO56UloUgTJlysikyZPlwQceiJIruLP4cjS/7zlKFr6P9Gdaf7b1Z5yEQKoECGBSJc16QgL58uWTF156SSaOH49INgFOT2QDMfAtF/Ee3Sn6s6w/0/qzTUIglQIEMKnUZl2HBerWqyebNm6UtgwnftiEIzCHKYx9wRGYI13TVp0W/n3TJtGfZRIC6RAggEmHOusMCZx66qkyQF3w9/677yKiBLgGxvzNgKNk/+sj/ZkdoB7kesopp5jfadTQtwIEML7tWnsadvMtt8jK5culQcB/yXEExvxtNuh9pD+j+rOqP7MkBNItQACT7h5g/SGBUqVLy1g1bkTfN94IrMj+ffsC23ZbGh7kU0j6s6k/o/qzSkLABAECGBN6gTqEBPRjCDrdfrusXbNGml91VeBUgv7r3oYOD+JpPv1Z1J9J/dnUn1ESAqYIsDWa0hPU47BA8eLF5bPhw6W/ejBkkFIQvxxt698FixbZVuWk6qs/g/qzqD+TJARMEyCAMa1HqE9IQD/47YYbbpBf1q+XdtdeGwiVAzzMMRD9bEMj9WdOf/b0Z5CHMNrQY8GsIwFMMPvdmlYXLlJEPv7kk9DTrStXqGBNvROp6D6ugUmEjWVcFNCfMf30aP2Z0589EgImCxDAmNw71O2wgH6i7VcZGfLSCy8cnua3F5xC8luP2tUe/dmaMXMmT4+2q9sCXdscB1UKtACNt07gp59+kscefVQ+/vRT6+oes8J8HGMSpTWDOrXpt6RPFz3z7LM8OdpvHRuA9nAEJgCd7LcmFitWLHSIe9KECXJxxYp+ax7tQSAlAvqzox8DoE8X6c8UCQHbBDgCY1uPUd8sAnv37JF+/fpJh06dsky39g1HYMzuOp8cgXm7b1+56aabJHeePGZ7UzsEoghwBCYKDrPMF9A74A4dO8rWLVvk6W7dzK8wNUQgjQL6M6I/K/ozQ/CSxo5g1a4IcATGFUYKMUXglw0bpMfzz0tvW0f05QiMKZtS+HpYegTm7jvukIcefpg7i8L3KlMtFSCAsbTjqHZ0gWXLlskz3bvLwCFDomc0bS4BjGk9krU+lgUw17RuLY898YSULVs2azt4h4APBAhgfNCJNCGywPz58+XlF1+UQUOHRs5k0hwCGJN64+i6WBLAtGnVSu7v0kUqVap0dBuYgoBPBAhgfNKRNCO6wIIFC+SVl16SAYMHR8+Y7rkEMOnugejrNzyA0UdcHujaVSr4fNDH6J3E3KAIEMAEpadpZ0hg4cKF8rIOZAYNMlOEAMbMfjlUK0MDmLZt2sgD6ojLRRdddKim/I+A7wUIYHzfxTQwnMAiFcj0ef11ed+0B0YSwITrLnOmGRbA3KSeVXTX3XdLeQIXc7YRapIyAW6jThk1KzJJQO/w3//gA1m7Zo088tBDRlStQb16RtSDSkQWMKWPHn7wwdC2208F4AQvkfuLOf4WIIDxd//SuhgCxYsXl+fUbddb/vpLer36aozc3s6+8MILvV0BpSctkO4+0tuo3laf79FD9LZLQiDIAgQwQe592n5Y4IQTT5TO99wje3fvlsEDB8rlNWsenpeqF/UbNEjVqlhPggLp6KPal10W2ib1tqm3Ub2tkhBAQIRrYNgKEIggoO9c+qh/f+mlrpXxOlW75BKZqZ62ncOwayy8brdt5etn31avVk0yZs/2vOp333mnXK+ucanI8748t2YFdgoQwNjZb9Q6hQJbt26VoWpAvI8++khmzJzpyZonjBsn9erX96RsCnVXYIJ6AGI9j46W1aheXdq1ayet1e3QBU84wd2KUxoCPhMggPFZh9IcbwXmzp0rH6ujMn3Uw/DcSg+p2197qMH2SPYIPKTGWumhbsd3K92hHkZ6/fXXy8VVqrhVJOUg4HsBAhjfdzEN9ELg77//lrFjxsgwNcLv0OHDE17FvZ07yys9e8oxx3A5WsKIaVhw//798sD998urvXolvPaWzZtLy5Yt5cpGjSR//vwJl8OCCARVgAAmqD1Pu10T+O2332SECmKGf/aZTJo61XG5+rRUKzXkO8legaEqgG2lTvc4TVfUqiXNVdDSrFkzKVSokNPFyIcAAmEECGDCoDAJgUQFVq5YISNGjBA9UN7q1atlnvr/UKp56aVy3nnnSZ26daWBuoYid548h2bxv8UCe/fskS+++EImTZwoS5YskemZrpOqWL68lChRQi5U/zdv0UJKly5tcUupOgJmCRDAmNUf1AYBBBBAAAEEHAhw4t0BElkQQAABBBBAwCwBAhiz+oPaIIAAAggggIADAQIYB0hkQQABBBBAAAGzBAhgzOoPaoMAAggggAACDgQIYBwgkQUBBBBAAAEEzBIggDGrP6gNAggggAACCDgQIIBxgEQWBBBAAAEEEDBLgADGrP6gNggggAACCCDgQIAAxgESWRBAAAEEEEDALAECGLP6g9oggAACCCCAgAMBAhgHSGRBAAEEEEAAAbMECGDM6g9qgwACCCCAAAIOBAhgHCCRBQEEEEAAAQTMEiCAMas/qA0CCCCAAAIIOBAggHGARBYEEEAAAQQQMEuAAMas/qA2CCCAAAIIIOBAgADGARJZEEAAAQQQQMAsAQIYs/qD2iCAAAIIIICAAwECGAdIZEEAAQQQQAABswQIYMzqD2qDAAIIIIAAAg4ECGAcIJEFAQQQQAABBMwSIIAxqz+oDQIIIIAAAgg4ECCAcYBEFgQQQAABBBAwS4AAxqz+oDYIIIAAAggg4ECAAMYBElkQQAABBBBAwCwBAhiz+oPaIIAAAggggIADAQIYB0hkQQABBBBAAAGzBAhgzOoPaoMAAggggAACDgQIYBwgkQUBBBBAAAEEzBIggDGrP6gNAggggAACCDgQIIBxgEQWBBBAAAEEEDBLgADGrP6gNggggAACCCDgQIAAxgESWRBAAAEEEEDALAECGLP6g9oggAACCCCAgAMBAhgHSGRBAAEEEEAAAbMECGDM6g9qgwACCCCAAAIOBAhgHCCRBQEEEEAAAQTMEiCAMas/qA0CCCCAAAIIOBAggHGARBYEEEAAAQQQMEuAAMas/qA2CCCAAAIIIOBAgADGARJZEEAAAQQQQMAsAQIYs/qD2iCAAAIIIICAAwECGAdIZEEAAQQQQAABswQIYMzqD2qDAAIIIIAAAg4ECGAcIJEFAQQQQAABBMwSIIAxqz+oDQIIIIAAAgg4ECCAcYBEFgQQQAABBBAwS4AAxqz+oDYIIIAAAggg4ECAAMYBElkQQAABBBBAwCwBAhiz+oPaIIAAAggggIADAQIYB0hkQQABBBBAAAGzBAhgzOoPaoMAAggggAACDgQIYBwgkQUBBBBAAAEEzBIggDGrP6gNAggggAACCDgQIIBxgEQWBBBAAAEEEDBLgADGrP6gNggggAACCCDgQIAAxgESWRBAAAEEEEDALAECGLP6g9oggAACCCCAgAMBAhgHSGRBAAEEEEAAAbMECGDM6g9qgwACCCCAAAIOBAhgHCCRBQEEEEAAAQTMEiCAMas/qA0CCCCAAAIIOBAggHGARBYEEEAAAQQQMEuAAMas/qA2CCCAAAIIIOBAgADGARJZEEAAAQQQQMAsAQIYs/qD2iCAAAIIIICAAwECGAdIZEEAAQQQQAABswQIYMzqD2qDAAIIIIAAAg4ECGAcIJEFAQQQQAABBMwSIIAxqz+oDQIIIIAAAgg4ECCAcYBEFgQQQAABBBAwS4AAxqz+oDYIIIAAAggg4EDg/wEMVxr5Nh/5aQAAAABJRU5ErkJggg==;" vertex="1" parent="1">
          <mxGeometry x="331" y="833" width="77" height="77" as="geometry" />
        </mxCell>
        <mxCell id="q0MprUQv03H-z0zO9nw7-92" value="Assistant / Agent UI" style="whiteSpace=wrap;html=1;aspect=fixed;strokeColor=#FF0000;strokeWidth=2;" vertex="1" parent="1">
          <mxGeometry x="300" y="407" width="80" height="80" as="geometry" />
        </mxCell>
        <mxCell id="q0MprUQv03H-z0zO9nw7-93" value="" style="endArrow=classic;html=1;rounded=0;exitX=0.963;exitY=0.613;exitDx=0;exitDy=0;exitPerimeter=0;entryX=0;entryY=0.5;entryDx=0;entryDy=0;strokeColor=#FF0000;strokeWidth=2;" edge="1" parent="1">
          <mxGeometry width="50" height="50" relative="1" as="geometry">
            <mxPoint x="207" y="446.5" as="sourcePoint" />
            <mxPoint x="287" y="446.5" as="targetPoint" />
          </mxGeometry>
        </mxCell>
        <mxCell id="q0MprUQv03H-z0zO9nw7-95" value="Agents / Knowledge Bases" style="shape=cylinder3;whiteSpace=wrap;html=1;boundedLbl=1;backgroundOutline=1;size=15;strokeColor=#FF0000;strokeWidth=2;" vertex="1" parent="1">
          <mxGeometry x="592.75" y="260" width="87.5" height="80" as="geometry" />
        </mxCell>
        <mxCell id="q0MprUQv03H-z0zO9nw7-97" value="" style="endArrow=classic;html=1;rounded=0;strokeColor=#FF0000;strokeWidth=2;exitX=0.5;exitY=1;exitDx=0;exitDy=0;entryX=0.5;entryY=0;entryDx=0;entryDy=0;entryPerimeter=0;" edge="1" parent="1" source="q0MprUQv03H-z0zO9nw7-84" target="q0MprUQv03H-z0zO9nw7-95">
          <mxGeometry width="50" height="50" relative="1" as="geometry">
            <mxPoint x="510" y="290" as="sourcePoint" />
            <mxPoint x="570" y="290" as="targetPoint" />
          </mxGeometry>
        </mxCell>
        <mxCell id="q0MprUQv03H-z0zO9nw7-99" value="Backend" style="whiteSpace=wrap;html=1;aspect=fixed;strokeColor=#FF0000;strokeWidth=2;" vertex="1" parent="1">
          <mxGeometry x="444" y="407" width="80" height="80" as="geometry" />
        </mxCell>
        <mxCell id="q0MprUQv03H-z0zO9nw7-100" value="" style="endArrow=classic;html=1;rounded=0;exitX=0.963;exitY=0.613;exitDx=0;exitDy=0;exitPerimeter=0;strokeColor=#FF0000;strokeWidth=2;" edge="1" parent="1">
          <mxGeometry width="50" height="50" relative="1" as="geometry">
            <mxPoint x="380" y="441.5" as="sourcePoint" />
            <mxPoint x="440" y="442" as="targetPoint" />
          </mxGeometry>
        </mxCell>
        <mxCell id="q0MprUQv03H-z0zO9nw7-101" value="Knowledge Bases" style="text;html=1;align=center;verticalAlign=middle;whiteSpace=wrap;rounded=0;fontSize=16;" vertex="1" parent="1">
          <mxGeometry x="304" y="620" width="140" height="45" as="geometry" />
        </mxCell>
        <mxCell id="q0MprUQv03H-z0zO9nw7-102" style="edgeStyle=orthogonalEdgeStyle;rounded=0;orthogonalLoop=1;jettySize=auto;html=1;entryX=0;entryY=0.5;entryDx=0;entryDy=0;entryPerimeter=0;exitX=0.5;exitY=0;exitDx=0;exitDy=0;strokeColor=#FF3333;strokeWidth=2;startArrow=classic;startFill=1;" edge="1" parent="1" source="q0MprUQv03H-z0zO9nw7-99" target="q0MprUQv03H-z0zO9nw7-95">
          <mxGeometry relative="1" as="geometry" />
        </mxCell>
        <mxCell id="q0MprUQv03H-z0zO9nw7-106" value="Agent" style="rounded=0;whiteSpace=wrap;html=1;strokeColor=#FF0000;strokeWidth=2;" vertex="1" parent="1">
          <mxGeometry x="513" y="395" width="60" height="32" as="geometry" />
        </mxCell>
        <mxCell id="q0MprUQv03H-z0zO9nw7-108" value="" style="rounded=0;whiteSpace=wrap;html=1;strokeColor=#FF0000;strokeWidth=2;" vertex="1" parent="1">
          <mxGeometry x="524" y="407" width="60" height="32" as="geometry" />
        </mxCell>
        <mxCell id="q0MprUQv03H-z0zO9nw7-109" value="Agent" style="rounded=0;whiteSpace=wrap;html=1;strokeColor=#FF0000;strokeWidth=2;" vertex="1" parent="1">
          <mxGeometry x="532.75" y="420" width="60" height="32" as="geometry" />
        </mxCell>
        <mxCell id="q0MprUQv03H-z0zO9nw7-110" value="" style="endArrow=classic;html=1;rounded=0;strokeColor=#FF0000;strokeWidth=2;endFill=1;startArrow=classic;startFill=1;" edge="1" parent="1">
          <mxGeometry width="50" height="50" relative="1" as="geometry">
            <mxPoint x="592.75" y="435.5" as="sourcePoint" />
            <mxPoint x="740" y="436" as="targetPoint" />
            <Array as="points">
              <mxPoint x="592.75" y="435.5" />
            </Array>
          </mxGeometry>
        </mxCell>
      </root>
    </mxGraphModel>
  </diagram>
</mxfile>
